<svg width="10" height="10" viewBox="0 0 10 10" fill="none" xmlns="http://www.w3.org/2000/svg">
<g clip-path="url(#clip0_49_310)">
<path d="M5 0C7.7615 0 10 2.2385 10 5C10 7.7615 7.7615 10 5 10C2.2385 10 0 7.7615 0 5C0 2.2385 2.2385 0 5 0ZM4.535 2.7905C4.44252 2.79076 4.3539 2.82762 4.28851 2.89301C4.22312 2.9584 4.18626 3.04702 4.186 3.1395V5.93C4.186 6.123 4.342 6.279 4.535 6.279H7.3255C7.37241 6.28078 7.4192 6.27307 7.46306 6.25635C7.50692 6.23962 7.54696 6.21422 7.58077 6.18166C7.61459 6.1491 7.64149 6.11005 7.65986 6.06685C7.67824 6.02365 7.68771 5.97719 7.68771 5.93025C7.68771 5.88331 7.67824 5.83685 7.65986 5.79365C7.64149 5.75045 7.61459 5.7114 7.58077 5.67884C7.54696 5.64628 7.50692 5.62088 7.46306 5.60416C7.4192 5.58743 7.37241 5.57972 7.3255 5.5815H4.8835V3.1395C4.88324 3.04711 4.84645 2.95857 4.78117 2.89319C4.71588 2.82781 4.62739 2.7909 4.535 2.7905Z" fill="#483C8C"/>
</g>
<defs>
<clipPath id="clip0_49_310">
<rect width="10" height="10" fill="white"/>
</clipPath>
</defs>
</svg>
