<svg width="8" height="10" viewBox="0 0 8 10" fill="none" xmlns="http://www.w3.org/2000/svg">
<path d="M4 0.833496C3.39221 0.833496 2.80932 1.07494 2.37955 1.50471C1.94978 1.93448 1.70833 2.51737 1.70833 3.12516C1.70833 3.73295 1.94978 4.31585 2.37955 4.74562C2.80932 5.17539 3.39221 5.41683 4 5.41683C4.60779 5.41683 5.19068 5.17539 5.62045 4.74562C6.05022 4.31585 6.29167 3.73295 6.29167 3.12516C6.29167 2.51737 6.05022 1.93448 5.62045 1.50471C5.19068 1.07494 4.60779 0.833496 4 0.833496ZM2.33333 5.8335C1.7808 5.8335 1.2509 6.05299 0.860194 6.44369C0.469493 6.83439 0.25 7.3643 0.25 7.91683V9.16683H7.75V7.91683C7.75 7.3643 7.53051 6.83439 7.13981 6.44369C6.7491 6.05299 6.2192 5.8335 5.66667 5.8335H5.09083L4 8.01516L2.90917 5.8335H2.33333Z" fill="#483C8C"/>
</svg>
