<svg width="20" height="21" viewBox="0 0 20 21" fill="none" xmlns="http://www.w3.org/2000/svg">
<path d="M18.9519 1.04797C18.2806 0.377472 17.3706 0.000854492 16.4219 0.000854492C15.4731 0.000854492 14.5631 0.377472 13.8919 1.04797L1.93987 13C1.53341 13.406 1.24778 13.917 1.11487 14.476L0.0198673 19.078C-0.00978109 19.2026 -0.00700134 19.3328 0.0279416 19.4561C0.0628845 19.5793 0.128825 19.6916 0.219475 19.7821C0.310125 19.8727 0.422462 19.9385 0.545771 19.9733C0.66908 20.0081 0.79925 20.0108 0.923867 19.981L5.52487 18.885C6.08417 18.7522 6.59555 18.4666 7.00187 18.06L8.15287 16.909C8.00792 16.2545 7.96508 15.5815 8.02587 14.914L5.94087 17C5.73087 17.21 5.46687 17.358 5.17787 17.427L1.76187 18.241L2.57487 14.825C2.64387 14.535 2.79187 14.271 3.00187 14.061L12.9999 4.05997L15.9399 6.99997L13.9139 9.02597C14.5811 8.96687 15.2535 9.00969 15.9079 9.15297L18.9519 6.10897C19.6224 5.43771 19.999 4.52774 19.999 3.57897C19.999 2.6302 19.6224 1.71923 18.9519 1.04797ZM14.9519 2.10897C15.1449 1.91593 15.3741 1.7628 15.6263 1.65832C15.8785 1.55385 16.1489 1.50008 16.4219 1.50008C16.6949 1.50008 16.9652 1.55385 17.2174 1.65832C17.4696 1.7628 17.6988 1.91593 17.8919 2.10897C18.0849 2.30201 18.238 2.53119 18.3425 2.78341C18.447 3.03564 18.5008 3.30597 18.5008 3.57897C18.5008 3.85197 18.447 4.12231 18.3425 4.37453C18.238 4.62675 18.0849 4.85593 17.8919 5.04897L16.9999 5.93897L14.0599 2.99997L14.9519 2.10897ZM11.2769 11.977C11.3515 12.2355 11.3732 12.5065 11.3406 12.7736C11.308 13.0407 11.2219 13.2985 11.0874 13.5315C10.9528 13.7646 10.7726 13.9681 10.5576 14.1298C10.3426 14.2916 10.0971 14.4083 9.83587 14.473L9.25187 14.618C9.15777 15.2168 9.1598 15.8268 9.25787 16.425L9.79787 16.555C10.0614 16.6185 10.3094 16.7349 10.5266 16.8972C10.7438 17.0594 10.9257 17.2642 11.0613 17.4989C11.1969 17.7337 11.2834 17.9936 11.3155 18.2628C11.3475 18.532 11.3245 18.8049 11.2479 19.065L11.0609 19.696C11.5009 20.082 12.0009 20.396 12.5459 20.618L13.0389 20.099C13.2257 19.9025 13.4505 19.746 13.6997 19.6391C13.9489 19.5321 14.2172 19.477 14.4884 19.477C14.7595 19.477 15.0278 19.5321 15.277 19.6391C15.5262 19.746 15.751 19.9025 15.9379 20.099L16.4369 20.625C16.9778 20.4044 17.4786 20.0959 17.9189 19.712L17.7209 19.026C17.6463 18.7674 17.6246 18.4964 17.6572 18.2292C17.6899 17.962 17.7761 17.7042 17.9107 17.4711C18.0454 17.2381 18.2257 17.0346 18.4408 16.8729C18.656 16.7111 18.9016 16.5945 19.1629 16.53L19.7459 16.385C19.84 15.7862 19.8379 15.1762 19.7399 14.578L19.1999 14.448C18.9364 14.3844 18.6886 14.2679 18.4715 14.1055C18.2544 13.9432 18.0726 13.7385 17.9371 13.5037C17.8015 13.269 17.7152 13.0091 17.6831 12.74C17.6511 12.4708 17.6742 12.198 17.7509 11.938L17.9369 11.307C17.4966 10.9197 16.9951 10.6081 16.4529 10.385L15.9599 10.903C15.773 11.0996 15.5481 11.2563 15.2989 11.3633C15.0496 11.4703 14.7811 11.5255 14.5099 11.5255C14.2386 11.5255 13.9702 11.4703 13.7209 11.3633C13.4716 11.2563 13.2467 11.0996 13.0599 10.903L12.5619 10.378C12.0179 10.598 11.5179 10.908 11.0789 11.291L11.2769 11.977ZM14.4999 17C13.6999 17 13.0499 16.329 13.0499 15.5C13.0499 14.672 13.6999 14 14.4999 14C15.2999 14 15.9499 14.672 15.9499 15.5C15.9499 16.329 15.2999 17 14.4999 17Z" fill="#483C8C"/>
</svg>
