<svg width="26" height="26" viewBox="0 0 26 26" fill="none" xmlns="http://www.w3.org/2000/svg">
<g clip-path="url(#clip0_49_126)">
<path d="M22.1724 9.41849L22.4389 8.80532C22.9075 7.72061 23.7656 6.8509 24.8439 6.36782L25.6662 6.00057C25.7659 5.95469 25.8504 5.88116 25.9097 5.7887C25.9689 5.69625 26.0004 5.58875 26.0004 5.47895C26.0004 5.36915 25.9689 5.26165 25.9097 5.16919C25.8504 5.07674 25.7659 5.00321 25.6662 4.95732L24.8894 4.61174C23.784 4.1149 22.9112 3.21303 22.4508 2.09191L22.1768 1.42999C22.1365 1.32746 22.0663 1.23943 21.9753 1.17738C21.8843 1.11534 21.7767 1.08215 21.6665 1.08215C21.5564 1.08215 21.4488 1.11534 21.3577 1.17738C21.2667 1.23943 21.1965 1.32746 21.1563 1.42999L20.8822 2.09082C20.4223 3.21216 19.5499 4.11442 18.4447 4.61174L17.6668 4.95841C17.5674 5.00443 17.4832 5.07794 17.4242 5.17028C17.3652 5.26261 17.3338 5.36991 17.3338 5.47949C17.3338 5.58907 17.3652 5.69637 17.4242 5.7887C17.4832 5.88104 17.5674 5.95455 17.6668 6.00057L18.4902 6.36674C19.5683 6.8503 20.426 7.72039 20.8941 8.80532L21.1606 9.41849C21.3556 9.86699 21.9763 9.86699 22.1724 9.41849ZM21.6665 11.9167C22.3923 11.9167 23.0889 11.7975 23.7411 11.5787C23.8025 12.0445 23.8332 12.5183 23.8332 13C23.8332 18.9832 18.9831 23.8333 12.9998 23.8333C7.01659 23.8333 2.1665 18.9832 2.1665 13C2.1665 7.01674 7.01659 2.16666 12.9998 2.16666C13.9813 2.16666 14.9314 2.29666 15.8349 2.54149C15.3461 3.53264 15.118 4.63206 15.1723 5.73587C15.2266 6.83968 15.5614 7.91142 16.1451 8.84983C16.7288 9.78825 17.5421 10.5623 18.5083 11.099C19.4744 11.6356 20.5614 11.917 21.6665 11.9167ZM14.0832 11.9167V6.49999L8.6665 14.0833H11.9165V19.5L17.3332 11.9167H14.0832Z" fill="#483C8C"/>
</g>
<defs>
<clipPath id="clip0_49_126">
<rect width="26" height="26" fill="white"/>
</clipPath>
</defs>
</svg>
