<svg width="34" height="35" viewBox="0 0 34 35" fill="none" xmlns="http://www.w3.org/2000/svg">
<mask id="path-1-outside-1_49_348" maskUnits="userSpaceOnUse" x="0" y="0" width="34" height="35" fill="black">
<rect fill="white" width="34" height="35"/>
<path d="M13.9622 17.56L2.86219 1.84H8.86219L17.1422 13.96L25.3622 1.84H31.3022L20.2022 17.56L31.9022 34H25.9022L17.1422 21.16L8.26219 34H2.32219L13.9622 17.56Z"/>
</mask>
<path d="M13.9622 17.56L2.86219 1.84H8.86219L17.1422 13.96L25.3622 1.84H31.3022L20.2022 17.56L31.9022 34H25.9022L17.1422 21.16L8.26219 34H2.32219L13.9622 17.56Z" fill="#483C8C"/>
<path d="M13.9622 17.56L14.7783 18.1379L15.1869 17.5608L14.7791 16.9832L13.9622 17.56ZM2.86219 1.84V0.84H0.931913L2.04531 2.41681L2.86219 1.84ZM8.86219 1.84L9.6879 1.2759L9.3901 0.84H8.86219V1.84ZM17.1422 13.96L16.3165 14.5241L17.1452 15.7371L17.9698 14.5213L17.1422 13.96ZM25.3622 1.84V0.84H24.8321L24.5346 1.2787L25.3622 1.84ZM31.3022 1.84L32.1191 2.41681L33.2325 0.84H31.3022V1.84ZM20.2022 17.56L19.3853 16.9832L18.9764 17.5623L19.3875 18.1398L20.2022 17.56ZM31.9022 34V35H33.8413L32.7169 33.4202L31.9022 34ZM25.9022 34L25.0761 34.5636L25.3739 35H25.9022V34ZM17.1422 21.16L17.9683 20.5964L17.1478 19.3938L16.3197 20.5912L17.1422 21.16ZM8.26219 34V35H8.78645L9.08466 34.5688L8.26219 34ZM2.32219 34L1.50605 33.4221L0.388881 35H2.32219V34ZM14.7791 16.9832L3.67907 1.26319L2.04531 2.41681L13.1453 18.1368L14.7791 16.9832ZM2.86219 2.84H8.86219V0.84H2.86219V2.84ZM8.03648 2.4041L16.3165 14.5241L17.9679 13.3959L9.6879 1.2759L8.03648 2.4041ZM17.9698 14.5213L26.1898 2.4013L24.5346 1.2787L16.3146 13.3987L17.9698 14.5213ZM25.3622 2.84H31.3022V0.84H25.3622V2.84ZM30.4853 1.26319L19.3853 16.9832L21.0191 18.1368L32.1191 2.41681L30.4853 1.26319ZM19.3875 18.1398L31.0875 34.5798L32.7169 33.4202L21.0169 16.9802L19.3875 18.1398ZM31.9022 33H25.9022V35H31.9022V33ZM26.7283 33.4364L17.9683 20.5964L16.3161 21.7236L25.0761 34.5636L26.7283 33.4364ZM16.3197 20.5912L7.43972 33.4312L9.08466 34.5688L17.9647 21.7288L16.3197 20.5912ZM8.26219 33H2.32219V35H8.26219V33ZM3.13833 34.5779L14.7783 18.1379L13.146 16.9821L1.50605 33.4221L3.13833 34.5779Z" fill="#E8F9FF" mask="url(#path-1-outside-1_49_348)"/>
</svg>
