<svg width="24" height="24" viewBox="0 0 24 24" fill="none" xmlns="http://www.w3.org/2000/svg">
<path d="M20.9519 3.04797C20.2806 2.37747 19.3706 2.00085 18.4219 2.00085C17.4731 2.00085 16.5631 2.37747 15.8919 3.04797L3.93987 15C3.53341 15.406 3.24778 15.917 3.11487 16.476L2.01987 21.078C1.99022 21.2026 1.993 21.3328 2.02794 21.4561C2.06288 21.5793 2.12883 21.6916 2.21948 21.7821C2.31013 21.8727 2.42246 21.9385 2.54577 21.9733C2.66908 22.0081 2.79925 22.0108 2.92387 21.981L7.52487 20.885C8.08417 20.7522 8.59555 20.4666 9.00187 20.06L10.1529 18.909C10.0079 18.2545 9.96508 17.5815 10.0259 16.914L7.94087 19C7.73087 19.21 7.46687 19.358 7.17787 19.427L3.76187 20.241L4.57487 16.825C4.64387 16.535 4.79187 16.271 5.00187 16.061L14.9999 6.05997L17.9399 8.99997L15.9139 11.026C16.5811 10.9669 17.2535 11.0097 17.9079 11.153L20.9519 8.10897C21.6224 7.43771 21.999 6.52774 21.999 5.57897C21.999 4.6302 21.6224 3.71923 20.9519 3.04797ZM16.9519 4.10897C17.1449 3.91593 17.3741 3.7628 17.6263 3.65832C17.8785 3.55385 18.1489 3.50008 18.4219 3.50008C18.6949 3.50008 18.9652 3.55385 19.2174 3.65832C19.4696 3.7628 19.6988 3.91593 19.8919 4.10897C20.0849 4.30201 20.238 4.53119 20.3425 4.78341C20.447 5.03564 20.5008 5.30597 20.5008 5.57897C20.5008 5.85197 20.447 6.12231 20.3425 6.37453C20.238 6.62675 20.0849 6.85593 19.8919 7.04897L18.9999 7.93897L16.0599 4.99997L16.9519 4.10897ZM13.2769 13.977C13.3515 14.2355 13.3732 14.5065 13.3406 14.7736C13.308 15.0407 13.2219 15.2985 13.0874 15.5315C12.9528 15.7646 12.7726 15.9681 12.5576 16.1298C12.3426 16.2916 12.0971 16.4083 11.8359 16.473L11.2519 16.618C11.1578 17.2168 11.1598 17.8268 11.2579 18.425L11.7979 18.555C12.0614 18.6185 12.3094 18.7349 12.5266 18.8972C12.7438 19.0594 12.9257 19.2642 13.0613 19.4989C13.1969 19.7337 13.2834 19.9936 13.3155 20.2628C13.3475 20.532 13.3245 20.8049 13.2479 21.065L13.0609 21.696C13.5009 22.082 14.0009 22.396 14.5459 22.618L15.0389 22.099C15.2257 21.9025 15.4505 21.746 15.6997 21.6391C15.9489 21.5321 16.2172 21.477 16.4884 21.477C16.7595 21.477 17.0278 21.5321 17.277 21.6391C17.5262 21.746 17.751 21.9025 17.9379 22.099L18.4369 22.625C18.9778 22.4044 19.4786 22.0959 19.9189 21.712L19.7209 21.026C19.6463 20.7674 19.6246 20.4964 19.6572 20.2292C19.6899 19.962 19.7761 19.7042 19.9107 19.4711C20.0454 19.2381 20.2257 19.0346 20.4408 18.8729C20.656 18.7111 20.9016 18.5945 21.1629 18.53L21.7459 18.385C21.84 17.7862 21.8379 17.1762 21.7399 16.578L21.1999 16.448C20.9364 16.3844 20.6886 16.2679 20.4715 16.1055C20.2544 15.9432 20.0726 15.7385 19.9371 15.5037C19.8015 15.269 19.7152 15.0091 19.6831 14.74C19.6511 14.4708 19.6742 14.198 19.7509 13.938L19.9369 13.307C19.4966 12.9197 18.9951 12.6081 18.4529 12.385L17.9599 12.903C17.773 13.0996 17.5481 13.2563 17.2989 13.3633C17.0496 13.4703 16.7811 13.5255 16.5099 13.5255C16.2386 13.5255 15.9702 13.4703 15.7209 13.3633C15.4716 13.2563 15.2467 13.0996 15.0599 12.903L14.5619 12.378C14.0179 12.598 13.5179 12.908 13.0789 13.291L13.2769 13.977ZM16.4999 19C15.6999 19 15.0499 18.329 15.0499 17.5C15.0499 16.672 15.6999 16 16.4999 16C17.2999 16 17.9499 16.672 17.9499 17.5C17.9499 18.329 17.2999 19 16.4999 19Z" fill="#483C8C"/>
</svg>
