<svg width="40" height="40" viewBox="0 0 40 40" fill="none" xmlns="http://www.w3.org/2000/svg">
<mask id="path-1-outside-1_49_351" maskUnits="userSpaceOnUse" x="0" y="0" width="40" height="40" fill="black">
<rect fill="white" width="40" height="40"/>
<path d="M38.6426 22.6816H22.3242V39H17.4023V22.6816H1.08398V17.7012H17.4023V1.38281H22.3242V17.7012H38.6426V22.6816Z"/>
</mask>
<path d="M38.6426 22.6816H22.3242V39H17.4023V22.6816H1.08398V17.7012H17.4023V1.38281H22.3242V17.7012H38.6426V22.6816Z" fill="#483C8C"/>
<path d="M38.6426 22.6816V23.6816H39.6426V22.6816H38.6426ZM22.3242 22.6816V21.6816H21.3242V22.6816H22.3242ZM22.3242 39V40H23.3242V39H22.3242ZM17.4023 39H16.4023V40H17.4023V39ZM17.4023 22.6816H18.4023V21.6816H17.4023V22.6816ZM1.08398 22.6816H0.0839844V23.6816H1.08398V22.6816ZM1.08398 17.7012V16.7012H0.0839844V17.7012H1.08398ZM17.4023 17.7012V18.7012H18.4023V17.7012H17.4023ZM17.4023 1.38281V0.382812H16.4023V1.38281H17.4023ZM22.3242 1.38281H23.3242V0.382812H22.3242V1.38281ZM22.3242 17.7012H21.3242V18.7012H22.3242V17.7012ZM38.6426 17.7012H39.6426V16.7012H38.6426V17.7012ZM38.6426 21.6816H22.3242V23.6816H38.6426V21.6816ZM21.3242 22.6816V39H23.3242V22.6816H21.3242ZM22.3242 38H17.4023V40H22.3242V38ZM18.4023 39V22.6816H16.4023V39H18.4023ZM17.4023 21.6816H1.08398V23.6816H17.4023V21.6816ZM2.08398 22.6816V17.7012H0.0839844V22.6816H2.08398ZM1.08398 18.7012H17.4023V16.7012H1.08398V18.7012ZM18.4023 17.7012V1.38281H16.4023V17.7012H18.4023ZM17.4023 2.38281H22.3242V0.382812H17.4023V2.38281ZM21.3242 1.38281V17.7012H23.3242V1.38281H21.3242ZM22.3242 18.7012H38.6426V16.7012H22.3242V18.7012ZM37.6426 17.7012V22.6816H39.6426V17.7012H37.6426Z" fill="#E8F9FF" mask="url(#path-1-outside-1_49_351)"/>
</svg>
