<svg width="14" height="16" viewBox="0 0 14 16" fill="none" xmlns="http://www.w3.org/2000/svg">
<path d="M5.89167 0.291656H10.6083C11.0542 0.291656 11.425 0.291656 11.7292 0.316656C12.0458 0.341656 12.3425 0.398323 12.6233 0.541656C13.0546 0.761382 13.4053 1.11203 13.625 1.54332C13.7683 1.82416 13.825 2.12082 13.85 2.43749C13.875 2.74166 13.875 3.11249 13.875 3.55832V12.4417C13.875 12.8875 13.875 13.2583 13.85 13.5625C13.825 13.8792 13.7683 14.1758 13.625 14.4567C13.4055 14.8878 13.0552 15.2385 12.6242 15.4583C12.3542 15.5958 12.0692 15.6583 11.75 15.6858C11.6956 15.7003 11.6396 15.7079 11.5833 15.7083H10.8725L8.05417 15.7108C6.17333 15.7142 4.29333 15.7167 2.4125 15.7083C2.36806 15.7083 2.32361 15.7055 2.27917 15.7C1.89128 15.6523 1.52251 15.5044 1.20917 15.2708C0.601667 14.8158 0.125 13.9858 0.125 12.5833C0.125 12.4176 0.190848 12.2586 0.308058 12.1414C0.425268 12.0242 0.58424 11.9583 0.75 11.9583H2.625V3.55832C2.625 3.11249 2.625 2.74166 2.65 2.43749C2.675 2.12082 2.73167 1.82416 2.875 1.54332C3.09473 1.11203 3.44537 0.761382 3.87667 0.541656C4.1575 0.398323 4.45417 0.341656 4.77083 0.316656C5.075 0.291656 5.44583 0.291656 5.89167 0.291656ZM12.0558 14.345C12.2522 14.2451 12.4117 14.0855 12.5117 13.8892C12.55 13.8142 12.585 13.7 12.6042 13.46C12.6242 13.2142 12.625 12.8933 12.625 12.4167V3.58332C12.625 3.10666 12.625 2.78582 12.6042 2.53916C12.585 2.29999 12.55 2.18582 12.5117 2.11082C12.4117 1.9145 12.2522 1.75491 12.0558 1.65499C11.9808 1.61666 11.8667 1.58166 11.6267 1.56249C11.3808 1.54249 11.06 1.54166 10.5833 1.54166H5.91667C5.44 1.54166 5.11917 1.54166 4.8725 1.56249C4.63333 1.58166 4.51917 1.61666 4.44417 1.65499C4.24785 1.75491 4.08826 1.9145 3.98833 2.11082C3.95 2.18582 3.915 2.29999 3.89583 2.53916C3.87583 2.78582 3.875 3.10582 3.875 3.58332V11.9583H9.91667C10.0824 11.9583 10.2414 12.0242 10.3586 12.1414C10.4758 12.2586 10.5417 12.4176 10.5417 12.5833C10.5417 13.6808 10.8983 14.1 11.125 14.2708C11.2417 14.3576 11.3759 14.4179 11.5183 14.4475C11.81 14.4342 11.9375 14.4058 12.0558 14.345ZM2.42667 14.4583H9.69083C9.51417 14.1242 9.385 13.7117 9.32667 13.2083H1.42C1.52333 13.8517 1.78 14.1375 1.9575 14.2708C2.09086 14.3694 2.24665 14.4333 2.41083 14.4567L2.4175 14.4575L2.42667 14.4583Z" fill="#483C8C"/>
</svg>
