<svg width="14" height="18" viewBox="0 0 14 18" fill="none" xmlns="http://www.w3.org/2000/svg">
<path d="M1.99967 17.3334C1.54134 17.3334 1.14912 17.1703 0.823008 16.8442C0.496897 16.5181 0.333563 16.1256 0.333008 15.6667V2.33335C0.333008 1.87502 0.496341 1.4828 0.823008 1.15669C1.14967 0.830576 1.5419 0.667243 1.99967 0.666687H11.9997C12.458 0.666687 12.8505 0.83002 13.1772 1.15669C13.5038 1.48335 13.6669 1.87558 13.6663 2.33335V15.6667C13.6663 16.125 13.5033 16.5175 13.1772 16.8442C12.8511 17.1709 12.4586 17.3339 11.9997 17.3334H1.99967ZM1.99967 15.6667H11.9997V2.33335H1.99967V15.6667ZM2.83301 14H11.1663L8.29134 10.25L6.37467 12.75L5.08301 11.0834L2.83301 14Z" fill="#483C8C"/>
</svg>
