<svg width="19" height="19" viewBox="0 0 19 19" fill="none" xmlns="http://www.w3.org/2000/svg">
<path d="M9.57973 -0.00836182L18.3347 0.664971L19.0081 9.41914L9.89806 18.5291L0.469727 9.1008L9.57973 -0.00836182ZM10.2164 1.71164L2.82723 9.1008L9.89806 16.1725L17.2872 8.78247L16.7822 2.21664L10.2164 1.71164ZM13.4331 5.56497C13.3562 5.48538 13.2642 5.42189 13.1626 5.37822C13.0609 5.33455 12.9515 5.31156 12.8409 5.3106C12.7302 5.30963 12.6205 5.33072 12.5181 5.37262C12.4157 5.41452 12.3226 5.4764 12.2444 5.55464C12.1662 5.63289 12.1043 5.72593 12.0624 5.82834C12.0205 5.93076 11.9994 6.04049 12.0004 6.15114C12.0013 6.26179 12.0243 6.37114 12.068 6.47281C12.1116 6.57448 12.1751 6.66643 12.2547 6.7433C12.4119 6.8951 12.6224 6.9791 12.8409 6.9772C13.0594 6.9753 13.2684 6.88766 13.4229 6.73315C13.5774 6.57865 13.6651 6.36964 13.667 6.15114C13.6689 5.93264 13.5849 5.72214 13.4331 5.56497ZM11.0764 4.38664C11.3078 4.15136 11.5835 3.96423 11.8876 3.83604C12.1917 3.70786 12.5182 3.64115 12.8482 3.63976C13.1782 3.63838 13.5053 3.70235 13.8104 3.82799C14.1156 3.95362 14.3929 4.13844 14.6263 4.37177C14.8596 4.6051 15.0445 4.88233 15.1702 5.18746C15.2959 5.4926 15.36 5.81961 15.3587 6.14963C15.3574 6.47964 15.2907 6.80613 15.1626 7.11027C15.0345 7.4144 14.8475 7.69016 14.6122 7.92164C14.1422 8.38423 13.5083 8.64233 12.8488 8.63972C12.1893 8.63711 11.5575 8.37401 11.0911 7.90772C10.6247 7.44142 10.3615 6.80972 10.3587 6.15022C10.356 5.49071 10.6139 4.85682 11.0764 4.38664Z" fill="#483C8C"/>
</svg>
