<svg width="18" height="18" viewBox="0 0 18 18" fill="none" xmlns="http://www.w3.org/2000/svg">
<path fill-rule="evenodd" clip-rule="evenodd" d="M8.95283 0.0416659H9.04783C10.972 0.0416659 12.4795 0.0416659 13.6562 0.199999C14.8595 0.361666 15.8095 0.699999 16.5553 1.445C17.3012 2.19083 17.6387 3.14083 17.8003 4.345C17.9587 5.52083 17.9587 7.02833 17.9587 8.9525V9.02583C17.9587 10.6167 17.9587 11.9183 17.872 12.9783C17.7853 14.045 17.6078 14.9342 17.2095 15.6742C17.035 15.9997 16.817 16.2933 16.5553 16.555C15.8095 17.3008 14.8595 17.6383 13.6553 17.8C12.4795 17.9583 10.972 17.9583 9.04783 17.9583H8.95283C7.02866 17.9583 5.52116 17.9583 4.34449 17.8C3.14116 17.6383 2.19116 17.3 1.44533 16.555C0.784492 15.8942 0.442826 15.0717 0.261992 14.05C0.0828256 13.0475 0.0503255 11.8 0.0436588 10.2517C0.0425477 9.85722 0.0419922 9.44 0.0419922 9V8.95167C0.0419922 7.0275 0.0419922 5.52 0.200326 4.34333C0.361992 3.14 0.700326 2.19 1.44533 1.44417C2.19116 0.698333 3.14116 0.360833 4.34533 0.199166C5.52116 0.0408326 7.02866 0.0408325 8.95283 0.0408325M4.51116 1.4375C3.44616 1.58083 2.80366 1.85417 2.32949 2.32833C1.85449 2.80333 1.58199 3.445 1.43866 4.51083C1.29366 5.59417 1.29199 7.0175 1.29199 8.99917V9.7025L2.12616 8.9725C2.49205 8.65221 2.96601 8.48297 3.45202 8.49906C3.93803 8.51515 4.39975 8.71537 4.74366 9.05917L8.31866 12.6342C8.59608 12.9115 8.96245 13.0821 9.35328 13.116C9.74412 13.1498 10.1344 13.0447 10.4553 12.8192L10.7037 12.6442C11.1667 12.3188 11.7265 12.1601 12.2914 12.1942C12.8564 12.2283 13.393 12.453 13.8137 12.8317L16.172 14.9542C16.4103 14.4558 16.5512 13.8008 16.6262 12.8767C16.7078 11.8725 16.7087 10.6208 16.7087 8.99917C16.7087 7.0175 16.707 5.59417 16.562 4.51083C16.4187 3.445 16.1453 2.8025 15.6712 2.3275C15.1962 1.85333 14.5545 1.58083 13.4887 1.4375C12.4053 1.2925 10.982 1.29083 9.00033 1.29083C7.01866 1.29083 5.59449 1.2925 4.51116 1.4375Z" fill="#483C8C"/>
</svg>
