<svg width="20" height="20" viewBox="0 0 20 20" fill="none" xmlns="http://www.w3.org/2000/svg">
<path d="M8.33366 5.00001C8.33366 4.11595 7.98247 3.2681 7.35735 2.64298C6.73223 2.01786 5.88438 1.66667 5.00033 1.66667C4.11627 1.66667 3.26842 2.01786 2.6433 2.64298C2.01818 3.2681 1.66699 4.11595 1.66699 5.00001C1.66699 5.88406 2.01818 6.73191 2.6433 7.35703C3.26842 7.98215 4.11627 8.33334 5.00033 8.33334C5.88438 8.33334 6.73223 7.98215 7.35735 7.35703C7.98247 6.73191 8.33366 5.88406 8.33366 5.00001ZM8.33366 15C8.33366 14.1159 7.98247 13.2681 7.35735 12.643C6.73223 12.0179 5.88438 11.6667 5.00033 11.6667C4.11627 11.6667 3.26842 12.0179 2.6433 12.643C2.01818 13.2681 1.66699 14.1159 1.66699 15C1.66699 15.8841 2.01818 16.7319 2.6433 17.357C3.26842 17.9821 4.11627 18.3333 5.00033 18.3333C5.88438 18.3333 6.73223 17.9821 7.35735 17.357C7.98247 16.7319 8.33366 15.8841 8.33366 15ZM18.3337 5.00001C18.3337 4.11595 17.9825 3.2681 17.3573 2.64298C16.7322 2.01786 15.8844 1.66667 15.0003 1.66667C14.1163 1.66667 13.2684 2.01786 12.6433 2.64298C12.0182 3.2681 11.667 4.11595 11.667 5.00001C11.667 5.88406 12.0182 6.73191 12.6433 7.35703C13.2684 7.98215 14.1163 8.33334 15.0003 8.33334C15.8844 8.33334 16.7322 7.98215 17.3573 7.35703C17.9825 6.73191 18.3337 5.88406 18.3337 5.00001ZM18.3337 15C18.3337 14.1159 17.9825 13.2681 17.3573 12.643C16.7322 12.0179 15.8844 11.6667 15.0003 11.6667C14.1163 11.6667 13.2684 12.0179 12.6433 12.643C12.0182 13.2681 11.667 14.1159 11.667 15C11.667 15.8841 12.0182 16.7319 12.6433 17.357C13.2684 17.9821 14.1163 18.3333 15.0003 18.3333C15.8844 18.3333 16.7322 17.9821 17.3573 17.357C17.9825 16.7319 18.3337 15.8841 18.3337 15Z" stroke="#483C8C" stroke-width="1.5" stroke-linecap="round" stroke-linejoin="round"/>
</svg>
