<svg width="16" height="16" viewBox="0 0 16 16" fill="none" xmlns="http://www.w3.org/2000/svg">
<path fill-rule="evenodd" clip-rule="evenodd" d="M7.0625 0.812494C7.2351 0.812494 7.375 0.952396 7.375 1.12499V7.06249C7.375 7.23507 7.2351 7.37499 7.0625 7.37499H1.125C0.952402 7.37499 0.8125 7.23507 0.8125 7.06249V1.12499C0.8125 0.952396 0.952402 0.812494 1.125 0.812494H7.0625ZM6.04688 2.14062H2.14062V6.04687H6.04688V2.14062ZM15.6823 3.85324C15.8043 3.97527 15.8043 4.17314 15.6823 4.29517L12.1467 7.83072C12.0247 7.95275 11.8269 7.95275 11.7048 7.83072L8.16928 4.29517C8.04725 4.17314 8.04725 3.97527 8.16928 3.85324L11.7048 0.317689C11.8269 0.195658 12.0247 0.195658 12.1468 0.317689L15.6823 3.85324ZM14.025 4.07419L11.9258 1.97499L9.82656 4.07421L11.9258 6.17343L14.025 4.07419ZM7.0625 8.62499C7.2351 8.62499 7.375 8.76492 7.375 8.93749V14.875C7.375 15.0476 7.2351 15.1875 7.0625 15.1875H1.125C0.952402 15.1875 0.8125 15.0476 0.8125 14.875V8.93749C0.8125 8.76492 0.952402 8.62499 1.125 8.62499H7.0625ZM6.04688 9.95312H2.14062V13.8594H6.04688V9.95312ZM14.875 8.62499C15.0476 8.62499 15.1875 8.76492 15.1875 8.93749V14.875C15.1875 15.0476 15.0476 15.1875 14.875 15.1875H8.9375C8.7649 15.1875 8.625 15.0476 8.625 14.875V8.93749C8.625 8.76492 8.7649 8.62499 8.9375 8.62499H14.875ZM13.8594 9.95312H9.95312V13.8594H13.8594V9.95312Z" fill="#483C8C"/>
</svg>
