<svg width="18" height="20" viewBox="0 0 18 20" fill="none" xmlns="http://www.w3.org/2000/svg">
<path d="M0.666992 9.16668C0.666992 4.56418 4.39783 0.833344 9.00033 0.833344C13.6028 0.833344 17.3337 4.56418 17.3337 9.16668V13.4617C17.3337 14.8333 16.1503 15.8333 14.8337 15.8333H12.3337V9.16668H15.667C15.667 7.39857 14.9646 5.70287 13.7144 4.45263C12.4641 3.20239 10.7684 2.50001 9.00033 2.50001C7.23222 2.50001 5.53652 3.20239 4.28628 4.45263C3.03604 5.70287 2.33366 7.39857 2.33366 9.16668H5.66699V15.8333H4.05283C4.14522 16.1912 4.35392 16.5081 4.64612 16.7344C4.93831 16.9607 5.29743 17.0834 5.66699 17.0833H6.97033C7.23366 16.7058 7.67116 16.4583 8.16699 16.4583H9.83366C10.2204 16.4583 10.5914 16.612 10.8649 16.8855C11.1383 17.159 11.292 17.5299 11.292 17.9167C11.292 18.3034 11.1383 18.6744 10.8649 18.9479C10.5914 19.2214 10.2204 19.375 9.83366 19.375H8.16699C7.67116 19.375 7.23366 19.1275 6.97033 18.75H5.66699C4.83192 18.7501 4.02722 18.4368 3.41212 17.872C2.79701 17.3072 2.41631 16.5321 2.34533 15.7C1.39533 15.3858 0.666992 14.5383 0.666992 13.4625V9.16668ZM4.00033 14.1667V10.8333H2.33366V13.4617C2.33366 13.7892 2.64199 14.1667 3.16699 14.1667H4.00033ZM15.667 10.8333H14.0003V14.1667H14.8337C15.3587 14.1667 15.667 13.7892 15.667 13.4617V10.8333Z" fill="#483C8C"/>
</svg>
