<svg width="18" height="18" viewBox="0 0 18 18" fill="none" xmlns="http://www.w3.org/2000/svg">
<path d="M16.1987 10.78L16.1487 10.2825L16.1328 10.2842L16.117 10.2867L16.1987 10.78ZM16.1987 10.78L16.2487 11.2775L16.2653 11.2759L16.282 11.2734L16.1987 10.78ZM12.832 15.3484L13.1487 14.9617L13.1445 14.9584L12.832 15.3484ZM12.832 15.3484L12.5153 15.7359L12.5195 15.7392L12.832 15.3484ZM5.16866 15.3484L4.85199 14.9625L4.84366 14.9684L4.83616 14.975L5.16866 15.3484ZM5.16866 15.3484L5.48533 15.7359L5.49366 15.73L5.50116 15.7225L5.16866 15.3484ZM1.80116 7.22002V6.72002H1.77616L1.75116 6.72252L1.80116 7.22002ZM1.80116 7.22002V7.72002H1.82616L1.85116 7.71752L1.80116 7.22002ZM11.2778 1.75085C11.2623 1.5753 11.2434 1.4228 11.2228 1.29335C11.2028 1.1525 11.1603 1.01578 11.097 0.888354L10.2087 1.34752C10.2233 1.38352 10.2328 1.42055 10.237 1.45919C10.2512 1.54669 10.2637 1.66252 10.282 1.85085L11.2778 1.75085ZM11.4228 2.71085C11.4262 2.71502 11.3978 2.68002 11.367 2.50502C11.3282 2.25476 11.299 2.00322 11.2778 1.75085L10.282 1.85085C10.3153 2.18419 10.3428 2.46335 10.382 2.68169C10.4212 2.89585 10.482 3.12585 10.6278 3.31752L11.4228 2.71085ZM11.7328 2.83919C11.6744 2.84711 11.615 2.83941 11.5605 2.81687C11.506 2.79432 11.4585 2.75774 11.4228 2.71085L10.6278 3.31752C10.7706 3.50452 10.9602 3.65043 11.1776 3.74044C11.3949 3.83045 11.6322 3.86136 11.8653 3.83002L11.7328 2.83919ZM12.5145 2.26335C12.3212 2.42695 12.1221 2.58371 11.9178 2.73335C11.7712 2.83502 11.7278 2.84002 11.732 2.83919L11.8653 3.83002C12.1045 3.79669 12.3103 3.67835 12.4887 3.55419C12.6712 3.42752 12.8887 3.24919 13.147 3.03752L12.5145 2.26335ZM13.252 1.78002C13.1169 1.82561 12.99 1.89258 12.8762 1.97835C12.7524 2.06916 12.6317 2.16422 12.5145 2.26335L13.147 3.03752C13.2473 2.95283 13.351 2.87113 13.4562 2.79252C13.4866 2.76822 13.5202 2.74831 13.5562 2.73335L13.252 1.78002ZM14.1878 1.82752C13.8918 1.69926 13.5593 1.68184 13.252 1.78002L13.5562 2.73335C13.6328 2.70897 13.7157 2.71311 13.7895 2.74502L14.1878 1.82752ZM14.8737 2.38085C14.7664 2.27081 14.6558 2.1641 14.542 2.06085C14.4371 1.96468 14.3176 1.8859 14.1878 1.82752L13.7903 2.74419C13.8246 2.76303 13.856 2.78659 13.8837 2.81419C13.9503 2.87252 14.0337 2.95502 14.1662 3.08752L14.8737 2.38085ZM15.6178 3.12502L14.8737 2.38085L14.1662 3.08752L14.9103 3.83252L15.6178 3.12502ZM16.1712 3.81085C16.1128 3.6811 16.034 3.56154 15.9378 3.45669C15.8346 3.34288 15.7279 3.23227 15.6178 3.12502L14.9103 3.83252C15.0437 3.96585 15.127 4.04835 15.1853 4.11585C15.2123 4.14338 15.2353 4.17451 15.2537 4.20835L16.1712 3.81085ZM16.2178 4.74669C16.316 4.43937 16.2994 4.10688 16.1712 3.81085L15.2537 4.20835C15.2855 4.28252 15.2902 4.36573 15.2653 4.44252L16.2178 4.74669ZM15.7353 5.48419C15.8345 5.36695 15.9295 5.24632 16.0203 5.12252C16.0987 5.01252 16.172 4.89085 16.2178 4.74669L15.2653 4.44252C15.2504 4.47845 15.2305 4.51211 15.2062 4.54252C15.1275 4.64769 15.0458 4.75051 14.9612 4.85085L15.7353 5.48419ZM15.1603 6.26669C15.1587 6.27085 15.1637 6.22669 15.2653 6.08085C15.3645 5.93919 15.5128 5.75669 15.7353 5.48419L14.962 4.85169C14.7495 5.11169 14.5703 5.32752 14.4445 5.51002C14.3203 5.68835 14.2003 5.89419 14.1687 6.13335L15.1603 6.26669ZM15.2878 6.57502C15.2412 6.53945 15.2048 6.49222 15.1823 6.43809C15.1597 6.38395 15.1527 6.32483 15.1603 6.26669L14.1687 6.13335C14.1374 6.36658 14.1676 6.60391 14.2578 6.82126C14.3479 7.03861 14.494 7.22822 14.6812 7.37085L15.2878 6.57502ZM16.2478 6.72169C15.8978 6.68669 15.6645 6.66335 15.4937 6.63252C15.3187 6.60085 15.2837 6.57169 15.2878 6.57502L14.6812 7.37085C14.8728 7.51669 15.1028 7.57752 15.317 7.61669C15.5353 7.65585 15.8153 7.68335 16.1487 7.71669L16.2478 6.72169ZM17.1103 6.90169C16.9829 6.8384 16.8462 6.79592 16.7053 6.77585C16.577 6.75419 16.422 6.73919 16.2478 6.72169L16.1487 7.71669C16.337 7.73502 16.452 7.74752 16.5395 7.76169C16.6228 7.77585 16.6462 7.78669 16.652 7.79002L17.1103 6.90169ZM17.7395 7.59669C17.6208 7.2965 17.3973 7.04956 17.1103 6.90169L16.652 7.79002C16.7239 7.82705 16.7799 7.88895 16.8095 7.96419L17.7395 7.59669ZM17.8328 8.47252C17.8328 8.29752 17.8328 8.14252 17.8245 8.01252C17.8186 7.86998 17.7899 7.7293 17.7395 7.59585L16.8095 7.96419C16.8204 8.00155 16.826 8.04026 16.8262 8.07919C16.8328 8.16752 16.8328 8.28419 16.8328 8.47252H17.8328ZM17.8328 9.52585V8.47252H16.8328V9.52585H17.8328ZM17.7395 10.4017C17.7953 10.26 17.8153 10.1209 17.8245 9.98585C17.8328 9.85669 17.8328 9.70085 17.8328 9.52585H16.8328C16.8328 9.71419 16.8328 9.83085 16.827 9.91919C16.8266 9.95815 16.8207 9.99686 16.8095 10.0342L17.7395 10.4017ZM17.1103 11.0967C17.3973 10.9488 17.6208 10.7019 17.7395 10.4017L16.8095 10.0342C16.7795 10.1088 16.7236 10.1709 16.652 10.2075L17.1103 11.0967ZM16.2478 11.2767C16.4239 11.2611 16.5764 11.2431 16.7053 11.2225C16.8387 11.2 16.9762 11.1667 17.1112 11.0975L16.652 10.2075C16.616 10.2225 16.5782 10.2323 16.5395 10.2367C16.4094 10.2555 16.2788 10.2706 16.1478 10.2817L16.2478 11.2767ZM15.2878 11.4225C15.2845 11.4259 15.3187 11.3975 15.4945 11.3659C15.6645 11.3359 15.8978 11.3117 16.2478 11.2767L16.1478 10.2817C15.8145 10.315 15.5353 10.3425 15.317 10.3817C15.1037 10.42 14.8737 10.4817 14.682 10.6275L15.2878 11.4225ZM15.1595 11.7325C15.1516 11.6741 15.1593 11.6147 15.1818 11.5602C15.2044 11.5057 15.2409 11.4582 15.2878 11.4225L14.682 10.6275C14.4947 10.7702 14.3486 10.96 14.2584 11.1775C14.1682 11.395 14.1373 11.6325 14.1687 11.8659L15.1595 11.7325ZM15.7353 12.5142C15.572 12.3208 15.4155 12.1218 15.2662 11.9175C15.1645 11.7717 15.1595 11.7275 15.1595 11.7317L14.1687 11.865C14.2012 12.1042 14.3212 12.31 14.4445 12.4884C14.5712 12.67 14.7495 12.8884 14.9612 13.1467L15.7353 12.5142ZM16.2187 13.2509C16.173 13.1161 16.106 12.9895 16.0203 12.8759C15.9453 12.7692 15.8462 12.6492 15.7353 12.5142L14.962 13.1475C15.0812 13.2925 15.1545 13.3834 15.2062 13.4559C15.2305 13.4863 15.2512 13.5199 15.2662 13.5559L16.2187 13.2509ZM16.1712 14.1875C16.2996 13.8913 16.3162 13.5584 16.2178 13.2509L15.2653 13.555C15.2899 13.6319 15.2858 13.7151 15.2537 13.7892L16.1712 14.1875ZM15.6178 14.8725C15.742 14.7492 15.8512 14.6392 15.9378 14.5409C16.0339 14.4363 16.1127 14.317 16.1712 14.1875L15.2537 13.7892C15.2348 13.8234 15.2121 13.8548 15.1845 13.8825C15.1262 13.9492 15.0437 14.0325 14.9112 14.1659L15.6178 14.8725ZM14.8737 15.6175L15.6178 14.8725L14.9112 14.1659L14.1662 14.91L14.8737 15.6175ZM14.1887 16.1709C14.3278 16.11 14.4403 16.0259 14.542 15.9375C14.6395 15.8509 14.7503 15.7409 14.8737 15.6175L14.1662 14.91C14.0328 15.0434 13.9503 15.1259 13.8828 15.1842C13.8554 15.2114 13.8242 15.2347 13.7903 15.2534L14.1887 16.1709ZM13.252 16.2175C13.5593 16.3157 13.8926 16.2991 14.1887 16.1709L13.7903 15.2534C13.7163 15.2855 13.6331 15.2896 13.5562 15.265L13.252 16.2175ZM12.5145 15.7342C12.6503 15.8459 12.7703 15.9442 12.8762 16.02C12.9862 16.0984 13.1078 16.1709 13.252 16.2175L13.5562 15.265C13.5202 15.2501 13.4866 15.2302 13.4562 15.2059C13.351 15.1272 13.2482 15.0455 13.1478 14.9609L12.5145 15.7342ZM11.7328 15.1592C11.7278 15.1584 11.772 15.1634 11.9178 15.265C12.0595 15.3634 12.242 15.5117 12.5145 15.735L13.1478 14.9609C12.8878 14.7484 12.6712 14.57 12.4887 14.4442C12.3103 14.3192 12.1053 14.2 11.8653 14.1675L11.7328 15.1592ZM11.4228 15.2875C11.4585 15.2406 11.506 15.2041 11.5605 15.1815C11.615 15.159 11.6744 15.1513 11.7328 15.1592L11.8662 14.1675C11.6328 14.1361 11.3953 14.1671 11.1778 14.2572C10.9603 14.3474 10.7705 14.4936 10.6278 14.6809L11.4228 15.2875ZM11.277 16.2475C11.312 15.8975 11.3353 15.6642 11.3662 15.4934C11.3978 15.3184 11.4262 15.2834 11.4228 15.2875L10.6278 14.6809C10.482 14.8725 10.4212 15.1025 10.382 15.3159C10.3428 15.5342 10.3162 15.8142 10.2828 16.1484L11.277 16.2475ZM11.097 17.1109C11.167 16.975 11.2003 16.8384 11.2228 16.705C11.2445 16.5767 11.2595 16.4217 11.277 16.2475L10.282 16.1475C10.2709 16.2785 10.2558 16.4091 10.237 16.5392C10.2328 16.5778 10.2233 16.6157 10.2087 16.6517L11.097 17.1109ZM10.4028 17.7392C10.7026 17.6205 10.9492 17.3973 11.097 17.1109L10.2087 16.6525C10.1715 16.7241 10.1096 16.7798 10.0345 16.8092L10.4028 17.7392ZM9.52616 17.8325C9.70116 17.8325 9.85616 17.8325 9.98616 17.8242C10.1212 17.8159 10.2612 17.795 10.4028 17.7392L10.0345 16.8092C9.99713 16.8201 9.95842 16.8257 9.91949 16.8259C9.78848 16.8319 9.65731 16.8342 9.52616 16.8325V17.8325ZM8.47283 17.8325H9.52616V16.8325H8.47283V17.8325ZM7.59699 17.7392C7.73866 17.795 7.87783 17.815 8.01283 17.8242C8.14199 17.8325 8.29783 17.8325 8.47283 17.8325V16.8325C8.28449 16.8325 8.16783 16.8325 8.07949 16.8267C8.04053 16.8263 8.00182 16.8212 7.96449 16.81L7.59699 17.7392ZM6.90199 17.11C7.04986 17.397 7.2968 17.6205 7.59699 17.7392L7.96366 16.8092C7.88904 16.7792 7.82778 16.7233 7.79116 16.6517L6.90199 17.11ZM6.72199 16.2475C6.73755 16.4236 6.7556 16.5761 6.77616 16.705C6.79866 16.8384 6.83199 16.975 6.90199 17.11L7.79116 16.6517C7.77651 16.6157 7.76614 16.5778 7.76199 16.5392C7.74313 16.4091 7.72813 16.2785 7.71699 16.1475L6.72199 16.2475ZM6.57616 15.2875C6.57282 15.2834 6.60116 15.3184 6.63283 15.4934C6.66283 15.6642 6.68699 15.8975 6.72199 16.2475L7.71699 16.1475C7.68366 15.8142 7.65616 15.535 7.61699 15.3167C7.57783 15.1025 7.51699 14.8725 7.37116 14.6809L6.57616 15.2875ZM6.26699 15.1592C6.32513 15.1516 6.38425 15.1594 6.43839 15.182C6.49253 15.2045 6.54059 15.2409 6.57616 15.2875L7.37116 14.6809C7.22843 14.4939 7.03877 14.3479 6.82143 14.2579C6.60409 14.1679 6.36681 14.137 6.13366 14.1684L6.26699 15.1592ZM5.48449 15.735C5.75699 15.5125 5.93866 15.3642 6.08116 15.265C6.22699 15.1634 6.27116 15.1584 6.26699 15.1592L6.13366 14.1684C5.89449 14.2017 5.68866 14.32 5.51032 14.4442C5.32783 14.5709 5.11033 14.7492 4.85199 14.9609L5.48449 15.735ZM4.74699 16.2175C4.88201 16.1722 5.0089 16.1055 5.12283 16.02C5.24663 15.9292 5.36725 15.8342 5.48449 15.735L4.85116 14.9617C4.7508 15.0461 4.64798 15.1275 4.54283 15.2059C4.51242 15.2302 4.47876 15.2501 4.44283 15.265L4.74699 16.2175ZM3.81116 16.1709C4.10718 16.2991 4.43967 16.3157 4.74699 16.2175L4.44283 15.265C4.36619 15.2894 4.28332 15.2853 4.20949 15.2534L3.81116 16.1709ZM3.12533 15.6175C3.24949 15.7409 3.35866 15.8509 3.45699 15.9375C3.55866 16.0259 3.67199 16.1109 3.81116 16.1709L4.20866 15.2542C4.17442 15.2353 4.143 15.2118 4.11533 15.1842C4.0182 15.0956 3.92371 15.0042 3.83199 14.91L3.12533 15.6175ZM2.38116 14.8734L3.12533 15.6175L3.83199 14.91L3.08783 14.1659L2.38116 14.8734ZM1.82783 14.1875C1.88783 14.3267 1.97283 14.44 2.06116 14.5417C2.14699 14.6392 2.25699 14.75 2.38116 14.8734L3.08783 14.1659C2.99395 14.0741 2.90279 13.9796 2.81449 13.8825C2.78725 13.855 2.76397 13.8239 2.74533 13.79L1.82783 14.1875ZM1.78116 13.2517C1.68298 13.559 1.69956 13.8915 1.82783 14.1875L2.74533 13.79C2.71348 13.7158 2.7088 13.6326 2.73366 13.5559L1.78116 13.2517ZM2.26366 12.5142C2.16452 12.6314 2.06947 12.7521 1.97866 12.8759C1.89325 12.9895 1.82658 13.117 1.78116 13.2517L2.73366 13.5559C2.74861 13.5199 2.76853 13.4863 2.79283 13.4559C2.84449 13.3834 2.91783 13.2934 3.03699 13.1475L2.26366 12.5142ZM2.83866 11.7325C2.84033 11.7275 2.83533 11.7709 2.73366 11.9175C2.63449 12.0592 2.48616 12.2417 2.26366 12.5142L3.03699 13.1475C3.24949 12.8875 3.42866 12.6709 3.55449 12.4884C3.67866 12.31 3.79866 12.1042 3.83033 11.865L2.83866 11.7325ZM2.71116 11.4225C2.75805 11.4582 2.79463 11.5057 2.81717 11.5602C2.83972 11.6147 2.84658 11.6741 2.83866 11.7325L3.83116 11.8659C3.86255 11.6325 3.8316 11.395 3.74143 11.1775C3.65127 10.96 3.50511 10.7702 3.31783 10.6275L2.71116 11.4225ZM1.75116 11.2775C2.10116 11.3125 2.33449 11.335 2.50533 11.3659C2.68033 11.3975 2.71533 11.4259 2.71116 11.4225L3.31783 10.6275C3.12616 10.4817 2.89616 10.4209 2.68199 10.3817C2.46366 10.3425 2.18449 10.315 1.85033 10.2817L1.75116 11.2775ZM0.888659 11.0967C1.02366 11.1667 1.16033 11.2 1.29366 11.2225C1.42199 11.2442 1.57699 11.26 1.75116 11.2775L1.85033 10.2817C1.71935 10.2706 1.58958 10.2555 1.45949 10.2367C1.42085 10.2325 1.38382 10.223 1.34783 10.2084L0.888659 11.0967ZM0.259492 10.4017C0.377826 10.7017 0.601159 10.9484 0.888659 11.0967L1.34783 10.2084C1.27594 10.1713 1.21913 10.1094 1.18949 10.0342L0.259492 10.4017ZM0.166992 9.52669C0.166992 9.70169 0.166992 9.85669 0.175326 9.98669C0.183659 10.1217 0.204492 10.2617 0.260326 10.4034L1.19033 10.035C1.17943 9.99765 1.17382 9.95894 1.17366 9.92002C1.16757 9.789 1.16534 9.65784 1.16699 9.52669H0.166992ZM0.166992 8.47335V9.52669H1.16699V8.47335H0.166992ZM0.260326 7.59752C0.204492 7.73919 0.184492 7.87835 0.175326 8.01335C0.166992 8.14252 0.166992 8.29835 0.166992 8.47335H1.16699C1.16699 8.28502 1.16699 8.16835 1.17283 8.08002C1.17866 7.99669 1.18783 7.97169 1.19033 7.96502L0.260326 7.59752ZM0.888659 6.90252C0.602035 7.05055 0.378798 7.29747 0.260326 7.59752L1.19033 7.96419C1.2203 7.88957 1.27624 7.82831 1.34783 7.79169L0.888659 6.90252ZM1.75116 6.72252C1.57505 6.73808 1.42338 6.75613 1.29449 6.77669C1.16116 6.79919 1.02449 6.83252 0.888659 6.90252L1.34699 7.79085C1.38325 7.77613 1.4214 7.7666 1.46033 7.76252C1.59041 7.74366 1.72019 7.72866 1.85116 7.71752L1.75116 6.72252ZM2.71199 6.57669C2.71616 6.57335 2.68199 6.60169 2.50616 6.63252C2.33533 6.66335 2.10116 6.68752 1.75116 6.72252L1.85116 7.71752C2.18449 7.68419 2.46533 7.65669 2.68366 7.61752C2.89699 7.57835 3.12699 7.51752 3.31866 7.37169L2.71199 6.57669ZM2.84033 6.26752C2.84794 6.32566 2.84009 6.38478 2.81756 6.43892C2.79503 6.49305 2.75861 6.54029 2.71199 6.57585L3.31866 7.37169C3.50581 7.22906 3.65188 7.03944 3.74204 6.82209C3.8322 6.60474 3.86323 6.36741 3.83199 6.13419L2.84033 6.26752ZM2.26449 5.48419C2.48783 5.75752 2.63533 5.93919 2.73449 6.08169C2.83616 6.22752 2.84116 6.27169 2.84033 6.26752L3.83199 6.13419C3.79949 5.89502 3.67949 5.68919 3.55616 5.51085C3.42949 5.32835 3.25116 5.11085 3.03866 4.85169L2.26449 5.48419ZM1.78116 4.74752C1.82783 4.89169 1.90116 5.01335 1.97949 5.12252C2.05449 5.22919 2.15366 5.34835 2.26449 5.48419L3.03866 4.85169C2.95397 4.75134 2.87227 4.64852 2.79366 4.54335C2.76936 4.51295 2.74945 4.47929 2.73449 4.44335L1.78116 4.74752ZM1.82866 3.81169C1.7004 4.10771 1.68382 4.4402 1.78199 4.74752L2.73449 4.44335C2.7099 4.36646 2.71404 4.28325 2.74616 4.20919L1.82866 3.81169ZM2.38199 3.12585C2.25866 3.24919 2.14866 3.35919 2.06199 3.45752C1.96582 3.56237 1.88704 3.68194 1.82866 3.81169L2.74616 4.20919C2.765 4.17495 2.78773 4.14353 2.81533 4.11585C2.87366 4.04919 2.95616 3.96585 3.08949 3.83252L2.38199 3.12585ZM3.12616 2.38169L2.38199 3.12585L3.08949 3.83252L3.83366 3.08835L3.12616 2.38169ZM3.81199 1.82752C3.68219 1.88616 3.56262 1.96522 3.45783 2.06169C3.34402 2.16493 3.23341 2.27165 3.12616 2.38169L3.83366 3.08835C3.96699 2.95502 4.04949 2.87252 4.11699 2.81419C4.14446 2.78695 4.1756 2.76367 4.20949 2.74502L3.81199 1.82752ZM4.74783 1.78085C4.44051 1.68268 4.10802 1.69926 3.81199 1.82752L4.20949 2.74502C4.28356 2.7129 4.36677 2.70876 4.44366 2.73335L4.74783 1.78085ZM5.48533 2.26419C5.3681 2.16477 5.24747 2.06943 5.12366 1.97835C5.00999 1.89295 4.88256 1.82627 4.74783 1.78085L4.44366 2.73335C4.47964 2.74857 4.51247 2.76876 4.54283 2.79335C4.61533 2.84502 4.70533 2.91835 4.85116 3.03752L5.48533 2.26419ZM6.26783 2.83919C6.27199 2.84002 6.22783 2.83502 6.08199 2.73335C5.94033 2.63502 5.75783 2.48669 5.48533 2.26335L4.85199 3.03835C5.11199 3.25002 5.32866 3.42835 5.51116 3.55502C5.68949 3.67835 5.89449 3.79835 6.13366 3.83002L6.26783 2.83919ZM6.57699 2.71169C6.54126 2.75829 6.49385 2.79462 6.43955 2.81701C6.38526 2.8394 6.32602 2.84705 6.26783 2.83919L6.13449 3.83085C6.36771 3.8621 6.60505 3.83106 6.8224 3.7409C7.03975 3.65074 7.22936 3.50467 7.37199 3.31752L6.57699 2.71169ZM6.72283 1.75169C6.68783 2.10169 6.66449 2.33502 6.63366 2.50502C6.60199 2.68002 6.57366 2.71502 6.57699 2.71169L7.37199 3.31752C7.51866 3.12585 7.57866 2.89585 7.61783 2.68252C7.65699 2.46419 7.68449 2.18419 7.71783 1.85085L6.72283 1.75169ZM6.90283 0.889187C6.83954 1.01661 6.79706 1.15334 6.77699 1.29419C6.75533 1.42252 6.74033 1.57752 6.72283 1.75169L7.71783 1.85085C7.72896 1.71988 7.74397 1.58927 7.76283 1.45919C7.76705 1.42083 7.77659 1.38325 7.79116 1.34752L6.90283 0.889187ZM7.59783 0.26002C7.29764 0.378699 7.05069 0.60225 6.90283 0.889187L7.79116 1.34752C7.82819 1.27563 7.89009 1.21966 7.96533 1.19002L7.59783 0.26002ZM8.47366 0.166687C8.29866 0.166687 8.14366 0.166687 8.01366 0.17502C7.87866 0.183354 7.73866 0.204187 7.59699 0.26002L7.96533 1.19002C8.00269 1.17912 8.0414 1.17351 8.08033 1.17335C8.16866 1.16669 8.28533 1.16669 8.47366 1.16669V0.166687ZM9.52699 0.166687H8.47366V1.16669H9.52699V0.166687ZM10.4028 0.26002C10.2696 0.209666 10.1293 0.180969 9.98699 0.17502C9.85783 0.166687 9.70199 0.166687 9.52699 0.166687V1.16669C9.71533 1.16669 9.83199 1.16669 9.92033 1.17252C10.0037 1.17835 10.0287 1.18752 10.0353 1.19002L10.4028 0.26002ZM11.0978 0.889187C10.95 0.60225 10.703 0.378699 10.4028 0.26002L10.0362 1.19002C10.1108 1.22 10.172 1.27593 10.2087 1.34752L11.0978 0.889187ZM11.8337 9.00002C11.8337 9.75147 11.5351 10.4721 11.0038 11.0035C10.4724 11.5348 9.75177 11.8334 9.00033 11.8334V12.8334C10.017 12.8334 10.992 12.4295 11.7109 11.7106C12.4298 10.9917 12.8337 10.0167 12.8337 9.00002H11.8337ZM9.00033 6.16669C9.75177 6.16669 10.4724 6.4652 11.0038 6.99655C11.5351 7.5279 11.8337 8.24857 11.8337 9.00002H12.8337C12.8337 7.98336 12.4298 7.00833 11.7109 6.28944C10.992 5.57055 10.017 5.16669 9.00033 5.16669V6.16669ZM6.16699 9.00002C6.16699 8.24857 6.4655 7.5279 6.99686 6.99655C7.52821 6.4652 8.24888 6.16669 9.00033 6.16669V5.16669C7.98366 5.16669 7.00864 5.57055 6.28975 6.28944C5.57086 7.00833 5.16699 7.98336 5.16699 9.00002H6.16699ZM9.00033 11.8334C8.24888 11.8334 7.52821 11.5348 6.99686 11.0035C6.4655 10.4721 6.16699 9.75147 6.16699 9.00002H5.16699C5.16699 10.0167 5.57086 10.9917 6.28975 11.7106C7.00864 12.4295 7.98366 12.8334 9.00033 12.8334V11.8334Z" fill="#483C8C"/>
</svg>
