<svg width="18" height="18" viewBox="0 0 18 18" fill="none" xmlns="http://www.w3.org/2000/svg">
<path d="M9.00033 8.16669C10.1054 8.16669 11.1652 8.60567 11.9466 9.38708C12.728 10.1685 13.167 11.2283 13.167 12.3334V17.3334H11.5003V12.3334C11.5004 11.6957 11.2567 11.0821 10.8193 10.6181C10.3818 10.1542 9.78357 9.87493 9.14699 9.83752L9.00033 9.83335C8.36265 9.83332 7.74906 10.077 7.28511 10.5144C6.82115 10.9519 6.5419 11.5501 6.50449 12.1867L6.50033 12.3334V17.3334H4.83366V12.3334C4.83366 11.2283 5.27265 10.1685 6.05405 9.38708C6.83545 8.60567 7.89526 8.16669 9.00033 8.16669ZM3.58366 10.6667C3.81699 10.6672 4.04199 10.6934 4.25866 10.745C4.1167 11.1693 4.03234 11.6108 4.00783 12.0575L4.00033 12.3334V12.405C3.90452 12.3708 3.80489 12.3484 3.70366 12.3384L3.58366 12.3334C3.27305 12.3333 2.97357 12.449 2.74357 12.6577C2.51357 12.8665 2.36952 13.1534 2.33949 13.4625L2.33366 13.5834V17.3334H0.666992V13.5834C0.666992 12.8098 0.974283 12.0679 1.52126 11.521C2.06825 10.974 2.81011 10.6667 3.58366 10.6667ZM14.417 10.6667C15.1905 10.6667 15.9324 10.974 16.4794 11.521C17.0264 12.0679 17.3337 12.8098 17.3337 13.5834V17.3334H15.667V13.5834C15.667 13.2727 15.5514 12.9733 15.3426 12.7433C15.1339 12.5133 14.847 12.3692 14.5378 12.3392L14.417 12.3334C14.2703 12.3339 14.1314 12.3575 14.0003 12.4042V12.3334C14.0003 11.7784 13.9103 11.245 13.7437 10.7467C13.9587 10.6942 14.1853 10.6667 14.417 10.6667ZM3.58366 5.66669C4.13619 5.66669 4.6661 5.88618 5.0568 6.27688C5.4475 6.66758 5.66699 7.19749 5.66699 7.75002C5.66699 8.30255 5.4475 8.83246 5.0568 9.22316C4.6661 9.61386 4.13619 9.83335 3.58366 9.83335C3.03112 9.83335 2.50122 9.61386 2.11052 9.22316C1.71982 8.83246 1.50033 8.30255 1.50033 7.75002C1.50033 7.19749 1.71982 6.66758 2.11052 6.27688C2.50122 5.88618 3.03112 5.66669 3.58366 5.66669ZM14.417 5.66669C14.9695 5.66669 15.4994 5.88618 15.8901 6.27688C16.2808 6.66758 16.5003 7.19749 16.5003 7.75002C16.5003 8.30255 16.2808 8.83246 15.8901 9.22316C15.4994 9.61386 14.9695 9.83335 14.417 9.83335C13.8645 9.83335 13.3346 9.61386 12.9439 9.22316C12.5532 8.83246 12.3337 8.30255 12.3337 7.75002C12.3337 7.19749 12.5532 6.66758 12.9439 6.27688C13.3346 5.88618 13.8645 5.66669 14.417 5.66669ZM3.58366 7.33335C3.47315 7.33335 3.36717 7.37725 3.28903 7.45539C3.21089 7.53353 3.16699 7.63951 3.16699 7.75002C3.16699 7.86053 3.21089 7.96651 3.28903 8.04465C3.36717 8.12279 3.47315 8.16669 3.58366 8.16669C3.69417 8.16669 3.80015 8.12279 3.87829 8.04465C3.95643 7.96651 4.00033 7.86053 4.00033 7.75002C4.00033 7.63951 3.95643 7.53353 3.87829 7.45539C3.80015 7.37725 3.69417 7.33335 3.58366 7.33335ZM14.417 7.33335C14.3065 7.33335 14.2005 7.37725 14.1224 7.45539C14.0442 7.53353 14.0003 7.63951 14.0003 7.75002C14.0003 7.86053 14.0442 7.96651 14.1224 8.04465C14.2005 8.12279 14.3065 8.16669 14.417 8.16669C14.5275 8.16669 14.6335 8.12279 14.7116 8.04465C14.7898 7.96651 14.8337 7.86053 14.8337 7.75002C14.8337 7.63951 14.7898 7.53353 14.7116 7.45539C14.6335 7.37725 14.5275 7.33335 14.417 7.33335ZM9.00033 0.666687C9.88438 0.666687 10.7322 1.01788 11.3573 1.643C11.9825 2.26812 12.3337 3.11597 12.3337 4.00002C12.3337 4.88408 11.9825 5.73192 11.3573 6.35704C10.7322 6.98216 9.88438 7.33335 9.00033 7.33335C8.11627 7.33335 7.26842 6.98216 6.6433 6.35704C6.01818 5.73192 5.66699 4.88408 5.66699 4.00002C5.66699 3.11597 6.01818 2.26812 6.6433 1.643C7.26842 1.01788 8.11627 0.666687 9.00033 0.666687ZM9.00033 2.33335C8.5583 2.33335 8.13438 2.50895 7.82181 2.82151C7.50925 3.13407 7.33366 3.55799 7.33366 4.00002C7.33366 4.44205 7.50925 4.86597 7.82181 5.17853C8.13438 5.49109 8.5583 5.66669 9.00033 5.66669C9.44235 5.66669 9.86628 5.49109 10.1788 5.17853C10.4914 4.86597 10.667 4.44205 10.667 4.00002C10.667 3.55799 10.4914 3.13407 10.1788 2.82151C9.86628 2.50895 9.44235 2.33335 9.00033 2.33335Z" fill="#483C8C"/>
</svg>
