<svg width="20" height="20" viewBox="0 0 20 20" fill="none" xmlns="http://www.w3.org/2000/svg">
<g clip-path="url(#clip0_84_191)">
<path d="M9.9894 0C4.4708 0.006 0 4.4812 0 10C0.00281627 11.5664 0.373573 13.1103 1.08239 14.5071C1.79121 15.904 2.81827 17.1148 4.0808 18.042C4.0278 17.6358 4.0382 17.2164 4.1042 16.8016C3.44431 16.2289 2.87095 15.5635 2.402 14.8262H4.891C5.1274 14.4572 5.371 14.0922 5.796 13.8262C5.547 12.8062 5.3948 11.683 5.3668 10.5H5.636C5.71598 10.1499 5.84599 9.81307 6.022 9.5H5.3734C5.4158 8.313 5.582 7.1892 5.846 6.174H9.5V7.9516C9.85357 8.00593 10.1932 8.12847 10.5 8.3124V6.174H14.339C14.391 6.3734 14.438 6.578 14.482 6.7854C14.8185 6.73393 15.1603 6.72606 15.4988 6.762C15.4601 6.56518 15.4175 6.36914 15.371 6.174H18.149C18.5647 7.05963 18.8326 8.00738 18.942 8.9796C19.058 9.9894 19.0602 11.1746 18.6928 12.3338C18.5736 12.7767 18.4208 13.2098 18.2356 13.6294C18.4612 13.8668 18.7344 14.0912 19.009 14.3202C19.6583 12.9724 19.997 11.4961 20 10C20 4.4772 15.5228 0 10 0H9.9894ZM10.5 1.1364C11.5536 1.3156 12.5604 2.1836 13.3536 3.6238C13.6092 4.088 13.8376 4.6092 14.0352 5.1738H10.5V1.1364ZM9.5 1.1758V5.1738H6.15C6.3476 4.6092 6.576 4.088 6.8316 3.6238C7.578 2.2682 8.5142 1.4202 9.5 1.1758ZM7.196 1.4464C6.7312 1.9168 6.314 2.4904 5.9554 3.1414C5.6194 3.7514 5.3304 4.4348 5.093 5.1738H2.402C3.509 3.4326 5.197 2.0998 7.196 1.4464ZM13.078 1.539C14.9576 2.2216 16.542 3.5126 17.598 5.1738H15.091C14.8542 4.4348 14.5656 3.7514 14.2296 3.1414C13.8944 2.5324 13.5068 1.9916 13.078 1.539ZM1.8514 6.174H4.813C4.564 7.2064 4.4114 8.326 4.3724 9.5002H1.0144C1.07657 8.34799 1.36071 7.21864 1.8512 6.1742M1.0144 10.5H4.3668C4.3926 11.6712 4.5308 12.7908 4.7656 13.826H1.8512C1.36071 12.7816 1.07657 11.6522 1.0144 10.5Z" fill="#483C8C"/>
<path d="M15.2 7.55377C13.543 7.55377 12.2 8.89697 12.2 10.5538C12.2 12.2106 13.543 13.5538 15.2 13.5538C16.8566 13.5538 18.2 12.2106 18.2 10.5538C18.2 8.89697 16.8566 7.55377 15.2 7.55377ZM15.2 13.9984C11.886 13.9984 10.4 15.4846 10.4 18.7984V19.1984C10.415 19.9864 10.7634 20.0096 11.5 19.9984H18.9C19.839 19.9976 20.0064 19.9994 20 19.1984V18.7984C20 15.4846 18.5136 13.9984 15.2 13.9984ZM8.79999 8.67797C7.44259 8.67797 6.34179 9.77877 6.34179 11.1364C6.34179 12.4938 7.44259 13.5942 8.79999 13.5942C10.1574 13.5942 11.258 12.4938 11.258 11.1362C11.258 9.77857 10.1574 8.67797 8.79999 8.67797ZM8.79999 13.9584C6.08499 13.9584 4.86719 15.1764 4.86719 17.8912V18.219C4.87959 18.8646 5.16499 18.8836 5.76839 18.8744H9.59299C9.49539 17.2568 9.97319 15.5388 11.1632 14.4466C10.5608 14.1174 9.77819 13.9584 8.79999 13.9584Z" fill="#483C8C"/>
</g>
<defs>
<clipPath id="clip0_84_191">
<rect width="20" height="20" fill="white"/>
</clipPath>
</defs>
</svg>
