<svg width="15" height="16" viewBox="0 0 15 16" fill="none" xmlns="http://www.w3.org/2000/svg">
<path d="M1 12C1.73438 12 2.44271 11.9062 3.125 11.7188C3.80729 11.5312 4.44271 11.2604 5.03125 10.9062C5.61979 10.5521 6.15885 10.1354 6.64844 9.65625C7.13802 9.17708 7.55729 8.63802 7.90625 8.03906C8.25521 7.4401 8.52344 6.80208 8.71094 6.125C8.89844 5.44792 8.99479 4.73958 9 4C9 3.30729 8.91146 2.6276 8.73438 1.96094C8.55729 1.29427 8.29948 0.661458 7.96094 0.0625C8.6276 0.145833 9.26562 0.304688 9.875 0.539062C10.4844 0.773438 11.0495 1.07292 11.5703 1.4375C12.0911 1.80208 12.5625 2.22135 12.9844 2.69531C13.4062 3.16927 13.7656 3.6875 14.0625 4.25C14.3594 4.8125 14.5911 5.40885 14.7578 6.03906C14.9245 6.66927 15.0052 7.32292 15 8C15 8.73438 14.9062 9.44271 14.7188 10.125C14.5312 10.8073 14.2604 11.4427 13.9062 12.0312C13.5521 12.6198 13.1354 13.1589 12.6562 13.6484C12.1771 14.138 11.638 14.5573 11.0391 14.9062C10.4401 15.2552 9.80208 15.5234 9.125 15.7109C8.44792 15.8984 7.73958 15.9948 7 16C6.28125 16 5.58073 15.9062 4.89844 15.7188C4.21615 15.5312 3.57552 15.263 2.97656 14.9141C2.3776 14.5651 1.82552 14.138 1.32031 13.6328C0.815104 13.1276 0.388021 12.5625 0.0390625 11.9375C0.200521 11.9583 0.359375 11.974 0.515625 11.9844C0.671875 11.9948 0.833333 12 1 12ZM7 15C7.64583 15 8.26562 14.9167 8.85938 14.75C9.45312 14.5833 10.0104 14.349 10.5312 14.0469C11.0521 13.7448 11.5234 13.3802 11.9453 12.9531C12.3672 12.526 12.7318 12.0547 13.0391 11.5391C13.3464 11.0234 13.5833 10.4661 13.75 9.86719C13.9167 9.26823 14 8.64583 14 8C14 7.29167 13.8958 6.60677 13.6875 5.94531C13.4792 5.28385 13.1875 4.66927 12.8125 4.10156C12.4375 3.53385 11.9792 3.02865 11.4375 2.58594C10.8958 2.14323 10.2995 1.78906 9.64844 1.52344C9.88281 2.33073 10 3.15625 10 4C10 4.76042 9.90885 5.49479 9.72656 6.20312C9.54427 6.91146 9.28385 7.58333 8.94531 8.21875C8.60677 8.85417 8.19792 9.4401 7.71875 9.97656C7.23958 10.513 6.70573 10.987 6.11719 11.3984C5.52865 11.8099 4.89323 12.1458 4.21094 12.4062C3.52865 12.6667 2.80729 12.8438 2.04688 12.9375C2.71354 13.6042 3.46875 14.1146 4.3125 14.4688C5.15625 14.8229 6.05208 15 7 15Z" fill="black"/>
</svg>
