<svg width="59" height="59" viewBox="0 0 59 59" fill="none" xmlns="http://www.w3.org/2000/svg">
<path d="M33.75 25.25H48.75V59H0V10.25H33.75V25.25ZM18.75 14V25.25H30V14H18.75ZM30 40.25V29H18.75V40.25H30ZM3.75 14V25.25H15V14H3.75ZM3.75 29V40.25H15V29H3.75ZM15 55.25V44H3.75V55.25H15ZM30 55.25V44H18.75V55.25H30ZM45 55.25V44H33.75V55.25H45ZM33.75 40.25H45V29H33.75V40.25ZM58.125 12.125L46.875 23.375L35.625 12.125L46.875 0.875L58.125 12.125ZM46.875 5.12305L39.873 12.125L46.875 19.127L53.877 12.125L46.875 5.12305Z" fill="#483C8C"/>
</svg>
