<svg width="52" height="52" viewBox="0 0 52 52" fill="none" xmlns="http://www.w3.org/2000/svg">
<path d="M46.04 1C43.2575 1 41 7.715 41 16H46.04C48.47 16 49.6825 16 50.435 15.1625C51.185 14.3225 51.055 13.2175 50.795 11.01C50.1 5.175 48.235 1 46.04 1Z" stroke="#483C8C" stroke-width="1.5" stroke-linecap="round" stroke-linejoin="round"/>
<path d="M41 16.135V42.615C41 46.3925 41 48.2825 39.845 49.0275C37.9575 50.2425 35.04 47.6925 33.5725 46.7675C32.36 46.0025 31.755 45.6225 31.0825 45.6C30.355 45.575 29.7375 45.9425 28.4275 46.7675L23.65 49.78C22.36 50.5925 21.7175 51 21 51C20.2825 51 19.6375 50.5925 18.35 49.78L13.575 46.7675C12.36 46.0025 11.755 45.6225 11.0825 45.6C10.355 45.575 9.7375 45.9425 8.4275 46.7675C6.96 47.6925 4.0425 50.2425 2.1525 49.0275C1 48.2825 1 46.395 1 42.615V16.135C1 9 1 5.435 3.1975 3.2175C5.3925 1 8.93 1 16 1H46M11 11H31M16 21H11" stroke="#483C8C" stroke-width="1.5" stroke-linecap="round" stroke-linejoin="round"/>
<path d="M27.25 23.1875C25.18 23.1875 23.5 24.6575 23.5 26.47C23.5 28.28 25.18 29.75 27.25 29.75C29.32 29.75 31 31.22 31 33.0325C31 34.8425 29.32 36.3125 27.25 36.3125M27.25 23.1875C28.8825 23.1875 30.2725 24.1 30.7875 25.375M27.25 23.1875V21M27.25 36.3125C25.6175 36.3125 24.2275 35.4 23.7125 34.125M27.25 36.3125V38.5" stroke="#483C8C" stroke-width="1.5" stroke-linecap="round" stroke-linejoin="round"/>
</svg>
