<svg width="60" height="60" viewBox="0 0 60 60" fill="none" xmlns="http://www.w3.org/2000/svg">
<path d="M33.6328 33.75C32.0117 32.5391 30.2637 31.6113 28.3887 30.9668C26.5137 30.3223 24.5508 30 22.5 30C20.7812 30 19.1211 30.2246 17.5195 30.6738C15.918 31.123 14.4238 31.748 13.0371 32.5488C11.6504 33.3496 10.3906 34.3262 9.25781 35.4785C8.125 36.6309 7.14844 37.9004 6.32812 39.2871C5.50781 40.6738 4.87305 42.168 4.42383 43.7695C3.97461 45.3711 3.75 47.0312 3.75 48.75H0C0 46.4062 0.341797 44.1504 1.02539 41.9824C1.70898 39.8145 2.69531 37.8125 3.98438 35.9766C5.27344 34.1406 6.79688 32.5098 8.55469 31.084C10.3125 29.6582 12.3047 28.5352 14.5312 27.7148C13.4375 27.0312 12.4609 26.2305 11.6016 25.3125C10.7422 24.3945 10 23.3789 9.375 22.2656C8.75 21.1523 8.29102 19.9902 7.99805 18.7793C7.70508 17.5684 7.53906 16.3086 7.5 15C7.5 12.9297 7.89062 10.9863 8.67188 9.16992C9.45312 7.35352 10.5273 5.77148 11.8945 4.42383C13.2617 3.07617 14.8535 2.00195 16.6699 1.20117C18.4863 0.400391 20.4297 0 22.5 0C24.5703 0 26.5137 0.390625 28.3301 1.17188C30.1465 1.95312 31.7285 3.02734 33.0762 4.39453C34.4238 5.76172 35.498 7.35352 36.2988 9.16992C37.0996 10.9863 37.5 12.9297 37.5 15C37.5 16.2891 37.3438 17.5488 37.0312 18.7793C36.7188 20.0098 36.25 21.1719 35.625 22.2656C35 23.3594 34.2578 24.3652 33.3984 25.2832C32.5391 26.2012 31.5527 27.0117 30.4395 27.7148C31.6113 28.1641 32.7148 28.6914 33.75 29.2969V33.75H33.6328ZM11.25 15C11.25 16.5625 11.543 18.0176 12.1289 19.3652C12.7148 20.7129 13.5156 21.9043 14.5312 22.9395C15.5469 23.9746 16.7383 24.7852 18.1055 25.3711C19.4727 25.957 20.9375 26.25 22.5 26.25C24.043 26.25 25.498 25.957 26.8652 25.3711C28.2324 24.7852 29.4238 23.9844 30.4395 22.9688C31.4551 21.9531 32.2656 20.7617 32.8711 19.3945C33.4766 18.0273 33.7695 16.5625 33.75 15C33.75 13.457 33.457 12.002 32.8711 10.6348C32.2852 9.26758 31.4844 8.07617 30.4688 7.06055C29.4531 6.04492 28.252 5.23438 26.8652 4.62891C25.4785 4.02344 24.0234 3.73047 22.5 3.75C20.9375 3.75 19.4824 4.04297 18.1348 4.62891C16.7871 5.21484 15.5957 6.01562 14.5605 7.03125C13.5254 8.04688 12.7148 9.24805 12.1289 10.6348C11.543 12.0215 11.25 13.4766 11.25 15ZM60 37.5V60H30V37.5H37.5V30H52.5V37.5H60ZM41.25 37.5H48.75V33.75H41.25V37.5ZM56.25 48.75H52.5V52.5H48.75V48.75H41.25V52.5H37.5V48.75H33.75V56.25H56.25V48.75ZM56.25 41.25H33.75V45H56.25V41.25Z" fill="#483C8C"/>
</svg>
