<svg width="52" height="40" viewBox="0 0 52 40" fill="none" xmlns="http://www.w3.org/2000/svg">
<path d="M1 1.25H17.8925C18.8778 1.24988 19.8534 1.44389 20.7636 1.82095C21.6739 2.198 22.5009 2.75071 23.1975 3.4475L31 11.25M8.5 23.75H1M17.25 8.75L22.25 13.75C22.5783 14.0783 22.8387 14.4681 23.0164 14.897C23.1941 15.326 23.2855 15.7857 23.2855 16.25C23.2855 16.7143 23.1941 17.174 23.0164 17.603C22.8387 18.0319 22.5783 18.4217 22.25 18.75C21.9217 19.0783 21.5319 19.3387 21.103 19.5164C20.674 19.6941 20.2143 19.7855 19.75 19.7855C19.2857 19.7855 18.826 19.6941 18.397 19.5164C17.9681 19.3387 17.5783 19.0783 17.25 18.75L13.5 15C11.35 17.15 7.9425 17.3925 5.5075 15.5675L4.75 15" stroke="#483C8C" stroke-width="1.5" stroke-linecap="round" stroke-linejoin="round"/>
<path d="M8.5 17.5V28.75C8.5 33.465 8.5 35.82 9.965 37.285C11.43 38.75 13.785 38.75 18.5 38.75H41C45.715 38.75 48.07 38.75 49.535 37.285C51 35.82 51 33.465 51 28.75V21.25C51 16.535 51 14.18 49.535 12.715C48.07 11.25 45.715 11.25 41 11.25H19.75" stroke="#483C8C" stroke-width="1.5" stroke-linecap="round" stroke-linejoin="round"/>
<path d="M34.125 25C34.125 26.1603 33.6641 27.2731 32.8436 28.0936C32.0231 28.9141 30.9103 29.375 29.75 29.375C28.5897 29.375 27.4769 28.9141 26.6564 28.0936C25.8359 27.2731 25.375 26.1603 25.375 25C25.375 23.8397 25.8359 22.7269 26.6564 21.9064C27.4769 21.0859 28.5897 20.625 29.75 20.625C30.9103 20.625 32.0231 21.0859 32.8436 21.9064C33.6641 22.7269 34.125 23.8397 34.125 25Z" stroke="#483C8C" stroke-width="1.5" stroke-linecap="round" stroke-linejoin="round"/>
</svg>
