<svg width="60" height="56" viewBox="0 0 60 56" fill="none" xmlns="http://www.w3.org/2000/svg">
<path d="M47.5 38C44.5 38 41.8542 37.0625 39.5625 35.1875C37.2708 33.3125 35.8333 30.9167 35.25 28H27.8125L24.8125 23H35.25C35.4583 22.0833 35.74 21.2083 36.095 20.375C36.45 19.5417 36.9183 18.75 37.5 18H21.75L18.75 13H40.125L37.375 5.5H27.5V0.5H40.875L45.4375 13H47.5C50.9583 13 53.9067 14.2192 56.345 16.6575C58.7833 19.0958 60.0017 22.0433 60 25.5C59.9983 28.9567 58.7792 31.905 56.3425 34.345C53.9058 36.785 50.9583 38.0033 47.5 38ZM47.5 33C49.5833 33 51.3542 32.2708 52.8125 30.8125C54.2708 29.3542 55 27.5833 55 25.5C55 23.4167 54.2708 21.6458 52.8125 20.1875C51.3542 18.7292 49.5833 18 47.5 18H47.3125L49.75 24.6875L45 26.375L42.625 19.8125C41.7917 20.5208 41.1458 21.375 40.6875 22.375C40.2292 23.375 40 24.4167 40 25.5C40 27.5833 40.7292 29.3542 42.1875 30.8125C43.6458 32.2708 45.4167 33 47.5 33ZM17.5 55.5C15.4167 55.5 13.6458 54.7708 12.1875 53.3125C10.7292 51.8542 10 50.0833 10 48H0V33H5V25.5H0V20.5H17.5L25 33H35V48H25C25 50.0833 24.2708 51.8542 22.8125 53.3125C21.3542 54.7708 19.5833 55.5 17.5 55.5ZM10 33H19.1875L14.6875 25.5H10V33ZM17.5 50.5C18.2083 50.5 18.8025 50.26 19.2825 49.78C19.7625 49.3 20.0017 48.7067 20 48C19.9983 47.2933 19.7583 46.7 19.28 46.22C18.8017 45.74 18.2083 45.5 17.5 45.5C16.7917 45.5 16.1983 45.74 15.72 46.22C15.2417 46.7 15.0017 47.2933 15 48C14.9983 48.7067 15.2383 49.3008 15.72 49.7825C16.2017 50.2642 16.795 50.5033 17.5 50.5Z" fill="#483C8C"/>
</svg>
