<svg width="40" height="40" viewBox="0 0 40 40" fill="none" xmlns="http://www.w3.org/2000/svg">
<path d="M30 13.3334C30 15.9855 28.9464 18.5291 27.0711 20.4044C25.1957 22.2798 22.6522 23.3334 20 23.3334C17.3478 23.3334 14.8043 22.2798 12.9289 20.4044C11.0536 18.5291 10 15.9855 10 13.3334C10 10.6812 11.0536 8.13767 12.9289 6.26231C14.8043 4.38694 17.3478 3.33337 20 3.33337C22.6522 3.33337 25.1957 4.38694 27.0711 6.26231C28.9464 8.13767 30 10.6812 30 13.3334Z" fill="#483C8C"/>
<path opacity="0.7" d="M22.6342 22.9834C20.2595 23.6321 17.7289 23.382 15.5271 22.2811C13.3252 21.1802 11.6068 19.3057 10.7009 17.0167C8.7477 17.5503 7.00247 18.6641 5.69604 20.211C4.3896 21.7579 3.58353 23.665 3.38441 25.6799C3.1853 27.6949 3.60254 29.7228 4.58094 31.4955C5.55934 33.2682 7.05281 34.7021 8.86381 35.6076C10.6748 36.5131 12.718 36.8475 14.7232 36.5666C16.7284 36.2857 18.6011 35.4028 20.0936 34.0345C21.5861 32.6662 22.628 30.8772 23.0817 28.9039C23.5354 26.9306 23.3793 24.8661 22.6342 22.9834Z" fill="#483C8C"/>
<path opacity="0.4" d="M22.6333 22.9834C23.085 24.1234 23.3333 25.3667 23.3333 26.6667C23.3333 28.0737 23.0364 29.4647 22.462 30.7491C21.8876 32.0334 21.0487 33.1821 20 34.1201C21.1246 35.1247 22.4618 35.862 23.9116 36.2768C25.3614 36.6916 26.8862 36.7732 28.372 36.5153C29.8577 36.2575 31.2659 35.667 32.4912 34.7881C33.7165 33.9091 34.7272 32.7644 35.4475 31.4396C36.1679 30.1148 36.5793 28.6442 36.651 27.138C36.7227 25.6317 36.4528 24.1288 35.8615 22.7416C35.2702 21.3543 34.3729 20.1188 33.2366 19.1274C32.1003 18.1361 30.7546 17.4145 29.3 17.0167C28.7273 18.4599 27.8268 19.7502 26.6698 20.7857C25.5129 21.8212 24.131 22.5736 22.6333 22.9834Z" fill="#483C8C"/>
</svg>
