<svg width="26" height="26" viewBox="0 0 26 26" fill="none" xmlns="http://www.w3.org/2000/svg">
<path d="M11.332 24.6667C8.22536 24.6667 6.67203 24.6667 5.4487 24.1584C4.63961 23.8237 3.90436 23.333 3.28495 22.7141C2.66554 22.0953 2.1741 21.3605 1.8387 20.5517C1.33203 19.3267 1.33203 17.7734 1.33203 14.6667V13C1.33203 8.31837 1.33203 5.97837 2.45536 4.29671C2.94188 3.56847 3.56712 2.94323 4.29536 2.45671C5.97703 1.33337 8.31537 1.33337 12.9987 1.33337H15.4987C17.8254 1.33337 18.987 1.33337 19.9337 1.62004C20.983 1.93826 21.9376 2.51039 22.713 3.28574C23.4883 4.06109 24.0605 5.01572 24.3787 6.06504C24.6654 7.01171 24.6654 8.17337 24.6654 10.5" stroke="#483C8C" stroke-width="2" stroke-linecap="round" stroke-linejoin="round"/>
<path d="M24.8646 17.7983L21.328 21.3333M21.328 21.3333L17.793 24.8683M21.328 21.3333L24.8646 24.8683M21.328 21.3333L17.793 17.7983" stroke="#483C8C" stroke-width="2" stroke-linecap="round"/>
<path d="M3.83203 22.1667L22.1654 3.83337M24.652 10.5H24.6687M11.3187 24.6667H11.3354M1.33203 14.6667L14.6654 1.33337" stroke="#483C8C" stroke-width="2" stroke-linecap="round" stroke-linejoin="round"/>
</svg>
