<svg width="40" height="40" viewBox="0 0 40 40" fill="none" xmlns="http://www.w3.org/2000/svg">
<mask id="mask0_401_314" style="mask-type:luminance" maskUnits="userSpaceOnUse" x="2" y="2" width="36" height="36">
<path d="M30.5704 12.6424C31.6324 14.165 32.3514 15.8999 32.6779 17.7274H36.6654V22.2724H32.6779C32.3514 24.0999 31.6324 25.8348 30.5704 27.3574L33.3912 30.1783L30.177 33.3924L27.3562 30.5716C25.8336 31.6336 24.0987 32.3526 22.2712 32.6791V36.6666H17.7262V32.6791C15.8987 32.3526 14.1638 31.6336 12.6412 30.5716L9.82036 33.3924L6.6062 30.1783L9.42703 27.3574C8.36501 25.8348 7.64598 24.0999 7.31953 22.2724H3.33203V17.7274H7.31953C7.64598 15.8999 8.36501 14.165 9.42703 12.6424L6.6062 9.82159L9.82036 6.60742L12.6412 9.42825C14.1638 8.36623 15.8987 7.6472 17.7262 7.32075V3.33325H22.2712V7.32075C24.0987 7.6472 25.8336 8.36623 27.3562 9.42825L30.177 6.60742L33.3912 9.82159L30.5704 12.6424Z" fill="white" stroke="white" stroke-width="2" stroke-linejoin="round"/>
<path d="M19.9987 24.1666C21.1038 24.1666 22.1636 23.7276 22.945 22.9462C23.7264 22.1648 24.1654 21.105 24.1654 19.9999C24.1654 18.8948 23.7264 17.835 22.945 17.0536C22.1636 16.2722 21.1038 15.8333 19.9987 15.8333C18.8936 15.8333 17.8338 16.2722 17.0524 17.0536C16.271 17.835 15.832 18.8948 15.832 19.9999C15.832 21.105 16.271 22.1648 17.0524 22.9462C17.8338 23.7276 18.8936 24.1666 19.9987 24.1666Z" fill="black" stroke="black" stroke-width="2" stroke-linejoin="round"/>
</mask>
<g mask="url(#mask0_401_314)">
<path d="M0 0H40V40H0V0Z" fill="#483C8C"/>
</g>
</svg>
