<svg width="19" height="23" viewBox="0 0 19 23" fill="none" xmlns="http://www.w3.org/2000/svg">
<path d="M18.0938 3.6875H13.4062V2.51562C13.4062 1.99762 13.2005 1.50084 12.8342 1.13456C12.4679 0.768275 11.9711 0.5625 11.4531 0.5625H7.54688C7.02887 0.5625 6.53209 0.768275 6.16581 1.13456C5.79953 1.50084 5.59375 1.99762 5.59375 2.51562V3.6875H0.90625C0.69905 3.6875 0.500336 3.76981 0.353823 3.91632C0.20731 4.06284 0.125 4.26155 0.125 4.46875C0.125 4.67595 0.20731 4.87466 0.353823 5.02118C0.500336 5.16769 0.69905 5.25 0.90625 5.25H1.73633L2.66406 20.1387C2.7334 21.4497 3.73828 22.4375 5.00781 22.4375H13.9922C15.2681 22.4375 16.2529 21.4717 16.3359 20.1426L17.2637 5.25H18.0938C18.301 5.25 18.4997 5.16769 18.6462 5.02118C18.7927 4.87466 18.875 4.67595 18.875 4.46875C18.875 4.26155 18.7927 4.06284 18.6462 3.91632C18.4997 3.76981 18.301 3.6875 18.0938 3.6875ZM6.40283 19.3125H6.375C6.17253 19.3126 5.97792 19.2341 5.83218 19.0936C5.68645 18.9531 5.60096 18.7614 5.59375 18.5591L5.20312 7.62158C5.19574 7.41438 5.27097 7.21274 5.41227 7.061C5.55356 6.90927 5.74934 6.81988 5.95654 6.8125C6.16374 6.80512 6.36539 6.88035 6.51712 7.02164C6.66885 7.16294 6.75824 7.35872 6.76562 7.56592L7.15625 18.5034C7.15997 18.606 7.14343 18.7084 7.10757 18.8046C7.07171 18.9008 7.01723 18.989 6.94726 19.0641C6.87728 19.1393 6.79318 19.1999 6.69977 19.2425C6.60635 19.2851 6.50545 19.3089 6.40283 19.3125ZM10.2812 18.5312C10.2812 18.7385 10.1989 18.9372 10.0524 19.0837C9.90592 19.2302 9.7072 19.3125 9.5 19.3125C9.2928 19.3125 9.09409 19.2302 8.94757 19.0837C8.80106 18.9372 8.71875 18.7385 8.71875 18.5312V7.59375C8.71875 7.38655 8.80106 7.18784 8.94757 7.04132C9.09409 6.89481 9.2928 6.8125 9.5 6.8125C9.7072 6.8125 9.90592 6.89481 10.0524 7.04132C10.1989 7.18784 10.2812 7.38655 10.2812 7.59375V18.5312ZM11.8438 3.6875H7.15625V2.51562C7.15566 2.46416 7.16536 2.4131 7.18478 2.36545C7.20421 2.31779 7.23296 2.27449 7.26935 2.2381C7.30574 2.20171 7.34904 2.17296 7.3967 2.15354C7.44435 2.13411 7.49541 2.12441 7.54688 2.125H11.4531C11.5046 2.12441 11.5556 2.13411 11.6033 2.15354C11.651 2.17296 11.6943 2.20171 11.7307 2.2381C11.767 2.27449 11.7958 2.31779 11.8152 2.36545C11.8346 2.4131 11.8443 2.46416 11.8438 2.51562V3.6875ZM13.4062 18.5591C13.399 18.7614 13.3136 18.9531 13.1678 19.0936C13.0221 19.2341 12.8275 19.3126 12.625 19.3125H12.5967C12.4941 19.3088 12.3933 19.285 12.2999 19.2424C12.2065 19.1997 12.1225 19.1391 12.0526 19.064C11.9826 18.9888 11.9282 18.9007 11.8924 18.8045C11.8566 18.7083 11.84 18.606 11.8438 18.5034L12.2344 7.56592C12.238 7.46332 12.2619 7.36245 12.3045 7.26906C12.3471 7.17568 12.4077 7.0916 12.4829 7.02164C12.558 6.95168 12.6462 6.8972 12.7424 6.86132C12.8386 6.82543 12.9409 6.80885 13.0435 6.8125C13.1461 6.81615 13.2469 6.83998 13.3403 6.88262C13.4337 6.92526 13.5178 6.98587 13.5877 7.061C13.6577 7.13613 13.7122 7.22431 13.7481 7.32049C13.7839 7.41668 13.8005 7.51899 13.7969 7.62158L13.4062 18.5591Z" fill="#483C8C"/>
</svg>
