<svg width="24" height="24" viewBox="0 0 24 24" fill="none" xmlns="http://www.w3.org/2000/svg">
<path d="M4.75 6.75H3.5C2.83696 6.75 2.20107 7.01339 1.73223 7.48223C1.26339 7.95107 1 8.58696 1 9.25V20.5C1 21.163 1.26339 21.7989 1.73223 22.2678C2.20107 22.7366 2.83696 23 3.5 23H14.75C15.413 23 16.0489 22.7366 16.5178 22.2678C16.9866 21.7989 17.25 21.163 17.25 20.5V19.25" stroke="#483C8C" stroke-width="2" stroke-linecap="round" stroke-linejoin="round"/>
<path d="M16 4.25001L19.75 8.00001M21.4813 6.23126C21.9736 5.73895 22.2501 5.07124 22.2501 4.37501C22.2501 3.67878 21.9736 3.01107 21.4813 2.51876C20.9889 2.02645 20.3212 1.74988 19.625 1.74988C18.9288 1.74988 18.2611 2.02645 17.7688 2.51876L7.25 13V16.75H11L21.4813 6.23126Z" stroke="#483C8C" stroke-width="2" stroke-linecap="round" stroke-linejoin="round"/>
</svg>
