<svg width="24" height="16" viewBox="0 0 24 16" fill="none" xmlns="http://www.w3.org/2000/svg">
<path d="M2 15.5C1.64584 15.5 1.34917 15.38 1.11 15.14C0.870838 14.9 0.750838 14.6033 0.750004 14.25C0.749171 13.8967 0.869171 13.6 1.11 13.36C1.35084 13.12 1.6475 13 2 13H22C22.3542 13 22.6513 13.12 22.8913 13.36C23.1313 13.6 23.2508 13.8967 23.25 14.25C23.2492 14.6033 23.1292 14.9004 22.89 15.1412C22.6508 15.3821 22.3542 15.5017 22 15.5H2ZM2 9.25C1.64584 9.25 1.34917 9.13 1.11 8.89C0.870838 8.65 0.750838 8.35333 0.750004 8C0.749171 7.64667 0.869171 7.35 1.11 7.11C1.35084 6.87 1.6475 6.75 2 6.75H22C22.3542 6.75 22.6513 6.87 22.8913 7.11C23.1313 7.35 23.2508 7.64667 23.25 8C23.2492 8.35333 23.1292 8.65042 22.89 8.89125C22.6508 9.13208 22.3542 9.25167 22 9.25H2ZM2 3C1.64584 3 1.34917 2.88 1.11 2.64C0.870838 2.4 0.750838 2.10333 0.750004 1.75C0.749171 1.39667 0.869171 1.1 1.11 0.86C1.35084 0.62 1.6475 0.5 2 0.5H22C22.3542 0.5 22.6513 0.62 22.8913 0.86C23.1313 1.1 23.2508 1.39667 23.25 1.75C23.2492 2.10333 23.1292 2.40042 22.89 2.64125C22.6508 2.88208 22.3542 3.00167 22 3H2Z" fill="#483C8C"/>
</svg>
